<svg width="100" height="100" viewBox="0 0 100 100" fill="red" xmlns="http://www.w3.org/2000/svg">
<path d="M41.057 11.515a.759.759 0 00-.123-1.513l.06.757-.061-.757h-.004l-.008.002-.023.002a6.28 6.28 0 00-.348.047 8.697 8.697 0 00-.916.202c-.739.205-1.718.578-2.646 1.251-3.698 2.562-3.093 8.183.836 10.318l.007.005.015.007.304.152.013.006.013.006c1.468.668 2.454 1.964 2.515 3.365l.002.03a3.689 3.689 0 01-.598 2.384c-.52.79-1.46 1.595-3.096 2.235a.759.759 0 10.553 1.414c1.855-.726 3.078-1.704 3.81-2.813a5.2 5.2 0 00.845-3.331c-.097-2.078-1.53-3.809-3.39-4.66l-.28-.14c-3.041-1.662-3.345-5.893-.679-7.734l.015-.01c.74-.539 1.54-.848 2.167-1.022a7.12 7.12 0 01.959-.196l.048-.006h.01z" fill="red"/>
<path fill-rule="evenodd" clip-rule="evenodd" d="M61.359 52.275a.759.759 0 10-.653 1.37l.005.003.022.01.088.044c.079.04.197.099.35.178.306.159.75.397 1.3.712a45.6 45.6 0 014.27 2.784c3.325 2.445 7.163 5.984 9.401 10.423a.759.759 0 101.356-.683c-2.393-4.746-6.448-8.455-9.859-10.963a47.113 47.113 0 00-4.413-2.877 37.599 37.599 0 00-1.73-.934 9.57 9.57 0 00-.1-.049l-.026-.013-.008-.003-.003-.002zm0 0l-.03.064c-.038.077-.118.247-.297.621l.327-.685z" fill="red"/>
<path fill-rule="evenodd" clip-rule="evenodd" d="M50.406 39.07c-3.6 0-6.603 2.914-6.603 6.604 0 .464.06.92.142 1.341-15.376 2.81-27.087 15.454-27.087 30.765 0 .42.34.759.759.759H83.27c.42 0 .76-.34.76-.76 0-15.3-11.695-27.935-27.104-30.757.1-.433.158-.888.158-1.348 0-3.696-3.009-6.604-6.679-6.604zm-5.594 9.334c.054.004.11.002.166-.006 2.98-.447 6.694-.67 10.848-.002a.76.76 0 00.19.007c14.824 2.421 26.1 14.274 26.486 28.618H18.386c.385-14.343 11.658-26.193 26.426-28.617zm10.612-1.625c.09-.363.143-.738.143-1.105 0-2.832-2.303-5.086-5.16-5.086-2.776 0-5.086 2.248-5.086 5.086 0 .36.05.729.123 1.1a36.32 36.32 0 019.98.005zM12 85.522c0-.87.642-1.746 1.67-1.746h73.472c.95 0 1.746.795 1.746 1.746v2.808c0 1.028-.877 1.67-1.746 1.67H13.67c-.95 0-1.67-.72-1.67-1.67v-2.808zm1.58-.187a.282.282 0 00-.062.187v2.808c0 .08.026.11.034.118.008.008.038.034.118.034h73.472a.281.281 0 00.187-.063.11.11 0 00.041-.089v-2.808a.226.226 0 00-.072-.156.226.226 0 00-.156-.072H13.67a.11.11 0 00-.09.041zm53.236-75.333h-.005l-.007.002-.023.002-.078.008a8.63 8.63 0 00-1.187.241c-.738.205-1.718.578-2.646 1.251-3.697 2.562-3.093 8.183.836 10.318l.023.012.303.152.014.007c1.418.675 2.467 1.982 2.528 3.37.033.79-.116 1.628-.634 2.414-.52.787-1.457 1.593-3.13 2.233a.759.759 0 10.543 1.418c1.895-.726 3.12-1.704 3.854-2.814.733-1.112.926-2.285.883-3.316-.091-2.102-1.619-3.829-3.385-4.673l-.285-.142c-3.042-1.663-3.346-5.894-.68-7.735l.016-.01c.74-.539 1.54-.848 2.166-1.022a7.115 7.115 0 01.959-.196l.048-.006h.01a.76.76 0 00-.123-1.514zm.06.757l-.06-.757.06.757zm-12.41 1.9h-.004l-.008.001-.023.002-.078.009a8.669 8.669 0 00-1.187.241c-.738.205-1.717.578-2.645 1.25-3.698 2.562-3.093 8.184.835 10.319a.56.56 0 00.023.012l.304.152.013.006c1.418.676 2.467 1.982 2.528 3.37.033.79-.115 1.629-.634 2.415-.52.787-1.457 1.592-3.13 2.233a.759.759 0 10.543 1.417c1.895-.725 3.12-1.703 3.854-2.814.733-1.111.927-2.284.884-3.315v-.001c-.092-2.101-1.62-3.828-3.386-4.672l-.285-.143c-3.041-1.663-3.345-5.894-.68-7.735l.016-.01a6.792 6.792 0 012.167-1.021 7.12 7.12 0 01.958-.197l.045-.005h.013a.76.76 0 00-.123-1.514zm.06.757l-.06-.757.06.757z" fill="red"/>
</svg>