<svg width="177" height="98" viewBox="0 0 177 98" fill="white" xmlns="http://www.w3.org/2000/svg"><path opacity=".2" d="M174.483 36.626c-.666-1.875-1.357-3.742-2.03-5.614-1.555 2.464-3.428 4.544-5.859 6.212-5.164 3.542-11.381 5.288-17.432 6.618-11.089 2.437-21.706 2.072-32.242-1.79a13.511 13.511 0 00-.212-1.05c-.478-1.92-2.94-1.889-3.891-.433-3.091 4.734-4.818 9.602-9.528 13.213-4.195 3.215-9.228 5.39-14.16 7.184-10.367 3.768-21.353 5.705-32.38 5.77a99.552 99.552 0 01-31.79-5.028c-5.008-1.66-11.141-3.526-15.31-6.916-3.151-2.563-4.198-6.411-3.33-9.948-1.347 1.922-2.8 3.79-4.107 5.754.42 3.228 2.044 5.773 4.245 7.843-1.602.02-3.439-.121-2.303-1.029.649-.519.069-1.688-.709-1.622-1.587.136-2.665 1.177-3.002 2.457.057.742.114 1.484.162 2.225.133.325.313.641.552.94 1.044 1.313 2.59 1.83 4.184 2.078 2.42.379 4.227.182 5.828 2.416.706.984.942 2.412 1.474 3.497 3.705 7.546 11.505 12.134 19.644 12.847.368.31.792.534 1.242.623 7.16 1.42 12.957-1.976 19.303-4.738 3.95-1.72 8.284-3.138 12.44-1.181 3.771 1.774 5.38 5.65 8.59 8.082 3.498 2.653 7.35 2.347 10.266.243 1.441.614 3.153.312 4.02-1.591a129.961 129.961 0 003.047-7.297 20.748 20.748 0 001.977-3.035c.254-.472.376-.964.393-1.448 1.485-.906 4.21-1.233 5.729-1.71 2.519-.792 5.039-1.578 7.556-2.375 5.262-1.665 11.341-4.36 12.867-9.687 3.859 2.56 8.036 4.12 12.384 4.64.221.067.456.118.719.13.229.01.452.001.678.001 2.768.187 5.597-.04 8.451-.703 1.402-.326 1.905-1.643 1.685-2.821 1.513-1.044 2.95-2.242 4.34-3.49a30.334 30.334 0 013.97-.835c1.195.207 2.413.4 3.641.557 1.534.616 3.087.872 4.857.808a3.028 3.028 0 001.455-.414c.326-.007.651-.018.976-.036.699.267 1.526.25 2.392-.22l.719.065c.837.078 1.508-.205 2.008-.68a15.675 15.675 0 003.861-1.73c1.241-1.754 2.159-3.733 3.116-5.703.331-1.333.628-2.673.896-4.018-.121-2.39-.66-4.743-1.382-7.06zm-54.422 17.346c-.03.013-.052.033-.081.046-.118-.849-.43-1.551-.871-2.094a30.92 30.92 0 001.343-3.802c.023-.084.025-.16.041-.241a29.1 29.1 0 001.442.648c-.696 1.796-1.375 3.576-1.874 5.443zM84.54 21.098c-2.833-.166-5.68-.374-8.201-1.405-.231.411-.662.666-1.117.722 2.096 2.258 6.54 4.99 9.374 3.039.672-.463.957-1.53.246-2.13-.1-.084-.2-.157-.302-.226z" fill="#979391"/><path opacity=".2" d="M77.807 53.564c.584-.953 1.434-1.961 2.11-3.02.073-.217.132-.434.178-.65-2.85-3.817-9.113-3.137-13.592-2.682-6.721.682-13.75 1.399-20.286 3.135-1.864.495-2.658 1.883-2.632 3.316 3.821.803 6.953 3.823 10.974 4.007.093.004.18.02.263.038 3.414-.103 6.837-.368 10.182-.64 1.982-.162 3.95-.374 5.925-.39a1.27 1.27 0 01.698-.463 28.131 28.131 0 003.39-1.152 41.374 41.374 0 012.118-1.058c.232-.138.451-.29.672-.44zm56.065-25.716c-5.77-1.417-11.439-1.864-17.339-1.173-1.93.225-3.232 1.798-3.53 3.442a39.084 39.084 0 014.929 4.354c3.842.758 7.699 1.537 11.503 2.468.034 0 .063-.006.098-.004 2.497.136 8.611.259 12.914-1.117 1.082-1.038 1.87-2.338 2.268-4.03-3.134-2.147-7.468-3.11-10.843-3.94z" fill="white"/><path opacity=".2" d="M164.241 56.318c-3.407.515-8.135.935-11.386-.848a51.633 51.633 0 01-4.676 1.544 48.159 48.159 0 01-3.404.78c-4.907 5.388-13.031 6.315-19.766 3.65-.069-.028-.124-.056-.191-.083-.605.09-1.27-.181-1.504-.807-.834-.635-1.091-1.415-.981-2.733-.003-.05-.012-.098-.011-.152.084-3.511-.05-7.044-.849-10.48-.02-.089-.048-.176-.069-.264a27.86 27.86 0 00-4.238-8.177c-2.985-3.984-6.697-6.923-10.628-9.67-9.225-5.175-20.682-7.69-30.733-8.247a3.213 3.213 0 01-.557.22c-.133.039-.27.062-.407.089-.446 1.29-2.216 1.04-2.573-.006a27.606 27.606 0 01-2.265-.439c-.455.315-1.112.443-1.717.395-.44-.035-.887-.042-1.332-.05a4.098 4.098 0 00-.234.997c8.803.049 17.521 1.41 25.275 4.848 5.463.235 10.899 4.043 15.304 8.403.18.016.361.069.53.18 1.156.757 2.214 1.582 3.279 2.465.304.252.435.54.452.825a1.2 1.2 0 01.6.377c3.712 4.18 5.82 9.202 6.256 14.779.209 2.68.316 6.03-1.584 8.047-.382.879-.782 1.746-1.306 2.552-.589.907-1.718.722-2.257.101a23.6 23.6 0 01-1.041.848c.046.483-.125.963-.643 1.19-.109.047-.216.086-.325.13l.002.005c-.036.014-.073.025-.109.04a8.026 8.026 0 01-.58.205c-1.327.458-2.686.755-4.06 1.003-.185.422-.571.749-1.171.754-2.558.025-5.112.195-7.669.27-1.493.604-2.936 1.31-4.27 2.25-.04.029-.081.046-.122.07a21.14 21.14 0 01-2.181 3.868c-.658 1.637-1.305 3.278-2.019 4.892-.2.453-.587.648-1 .662-.166.28-.328.563-.502.84a1.41 1.41 0 01-.386.409c-.676 1.232-1.525 2.363-2.512 3.19-.052.199-.15.396-.318.582-1.974 2.17-4.887 1.98-7.348.812-.54-.257-.727-.7-.684-1.141-.463.048-.956-.092-1.304-.546-.217-.284-.414-.574-.619-.862a18.296 18.296 0 01-2.76-2.472c-.316.078-.649.07-.944-.088-2.027-1.09-3.66-2.293-5.082-4.119-.5-.64-.412-1.429.042-1.889a25.193 25.193 0 00-3.192-1.304 17.527 17.527 0 00-2.173-.55c-.328.035-.658.069-.987.106-.746.33-1.5.638-2.258.933a1.333 1.333 0 01-.934 1.25c-.528.184-1.06.347-1.589.521-5.783 2.139-10.495 6.681-16.933 6.73a1.318 1.318 0 01-1.07.61c-6.098.22-11.696-2.398-16.036-6.455-.546.231-1.23.135-1.66-.525a66.103 66.103 0 01-1.725-2.809 104.386 104.386 0 01-5.059-3.427c-1.739-2.013-3.444-3.932-5.68-5.254C8.796 73.43 11.123 81.23 16.963 87.08c.488.194.98.378 1.48.545a64.513 64.513 0 006.264 2.33c4.747 3.614 10.057 5.714 15.726 6.63 2.321.117 4.642.229 6.943.545.33 0 .659.005.991 0 4.895-.077 10.31-.367 15.48-1.351 11.064.427 21.588-2.162 31.4-7.242 3.413-1.767 6.659-3.82 9.778-6.055 3.396-3.232 7.238-6.278 7.881-11.049.133-.99 1.051-1.163 1.764-.81.543.044 1.076.388 1.262.93 8.69.782 18.168 2.552 27.292 2.344 6.057-1.767 12.156-3.071 17.83-5.75.366-.295.739-.584 1.118-.864a24.372 24.372 0 001.942-2.77c.644-1.637 1.357-3.29 2.251-4.774.611-1.635 1.204-3.307 2.19-4.723a15.708 15.708 0 01-4.313 1.302z" fill="white"/><path d="M55.298 57.264c.047.002.082-.014.123-.018 2.135.062 4.676.12 7.33.018.057.012.11.011.166-.007 5.737-.234 11.954-1.225 15.643-4.563 4.823-4.362-2.5-6.518-5.87-7.18-.085-.017-.16-.007-.236.002-8.31-1.267-18.548-.977-26.3 2.555a.366.366 0 00-.211.331c-2.06 1.08-3.763 3.184-2.076 5.434 2.276 3.03 8.035 3.215 11.431 3.428zm-8.178-8.46c4.112-.512 8.104-1.716 12.254-2.129 4.286-.426 8.54-.312 12.806.22.041.014.071.038.119.045 2.297.363 7.181.412 4.528 5.23.145-.638.258-1.278.244-1.95-.003-.172-.257-.261-.34-.093-.465.934-.637 1.916-.842 2.93-.487.287-1.101.529-1.766.733a.451.451 0 00.062-.176c.163-1.328.168-2.728-.428-3.957-.125-.256-.462-.099-.486.132-.13 1.264.067 2.56.125 3.825a.37.37 0 00.196.33c-1.238.338-2.555.565-3.452.738.035-1.866.198-3.805-.203-5.632-.044-.201-.364-.201-.408 0-.412 1.879-.228 3.876-.2 5.791-1.16.234-2.334.424-3.52.575.039-1.148-.06-2.3-.144-3.445-.089-1.205-.114-2.46-.565-3.59-.073-.185-.367-.23-.422 0-.297 1.27-.112 2.596-.008 3.884.088 1.083.164 2.173.363 3.242a59.71 59.71 0 01-1.946.189c-.022-.44-.06-.879-.103-1.314.058.04.125.07.213.07.499 0 .5-.776 0-.776a.353.353 0 00-.268.112 18.925 18.925 0 00-.663-3.162c-.075-.247-.43-.194-.443.06-.088 1.724.094 3.4.422 5.074a76.241 76.241 0 01-4.23.161c-.392-1.984-.562-4.069-1.194-5.97-.084-.252-.413-.186-.443.06-.232 1.942.305 4.022.888 5.92-.629 0-1.256-.003-1.88-.012-.031-.006-.055-.02-.089-.022a51.244 51.244 0 01-2.217-.137c.037-1.317-.371-2.7-.962-3.828-.082-.157-.353-.088-.34.093.076 1.172.117 2.438.296 3.636a24.884 24.884 0 01-2.949-.503c-.12-.763-.218-1.532-.322-2.3a.41.41 0 00.196.05c.543 0 .544-.845 0-.845a.387.387 0 00-.298.126 20.525 20.525 0 00-.437-2.235c-.05-.188-.33-.187-.38 0-.447 1.635-.206 3.364.328 4.966-.222-.065-.445-.128-.663-.2-1.002-.336-3.033-1.098-3.168-2.375-.19-1.812 1.419-2.733 2.739-3.541zm56.984 23.563l-.089.023c-.346.09-.457.54-.209.788.249.248.699.137.789-.209l.023-.089a.421.421 0 00-.514-.513zm4.995-1.343c.363 0 .363-.564 0-.564s-.363.564 0 .564zm-3.156 5.025c-.517 0-.518.803 0 .803.517 0 .518-.803 0-.803zm-10.668 5.482c-.616 0-.617.958 0 .958s.618-.958 0-.958zm1.955-8.301c-.472 0-.473.733 0 .733.47 0 .471-.732 0-.732zm3.004 3.902c-.091 0-.091.14 0 .14.09 0 .091-.14 0-.14zm-1.051.471c-.644 0-.645 1 0 1 .643 0 .644-1 0-1zm-87.746-4.171c-.598 0-.6.93 0 .93.598 0 .599-.93 0-.93zm5.408 7.212c-.598 0-.599.93 0 .93s.6-.93 0-.93zm-3.005-3.226c-.688 0-.69 1.07 0 1.07s.69-1.07 0-1.07zm14.575 7.939c-.526 0-.527.817 0 .817.525 0 .526-.817 0-.817zm-5.86-1.19c-.317 0-.317.493 0 .493.318 0 .318-.493 0-.493zm11.72 5.841c-.535 0-.536.83 0 .83.534.001.535-.83 0-.83zm8.264-5.395c-.517 0-.517.804 0 .804.516-.001.517-.804 0-.804zm1.051 7.077c-.498 0-.499.775 0 .775s.5-.776 0-.776zm9.636-.712a.171.171 0 00-.123-.123c-.299-.06-.732.117-.507.501.201.346.782.118.656-.276a.416.416 0 01-.026-.102zm1.934-8.496c-.554 0-.555.86 0 .86.552 0 .553-.86 0-.86zm-6.462 3.549c-.625 0-.626.972 0 .972s.627-.972 0-.972zm-12.47.539c-.127 0-.127.196 0 .196s.127-.197 0-.197zm26.744 2.56c-.698 0-.7 1.085 0 1.085.698 0 .7-1.084 0-1.084zm-.451-9.733c-.462 0-.463.718 0 .718.462 0 .463-.718 0-.718zm-3.756 7.121c-.58 0-.58.901 0 .901s.582-.901 0-.901zm10.217.565c-.626 0-.626.972 0 .972s.627-.972 0-.972zm5.71 4.106c-.562 0-.563.873 0 .873.561 0 .562-.873 0-.873zm-16.377 1.703c-.499 0-.5.775 0 .775.498-.001.499-.775 0-.775zm28.698-5.043c-.608 0-.609.944 0 .944.607 0 .608-.944 0-.944z" fill="white"/><path d="M54.183 53.162c.58 0 .58-.901 0-.901s-.581.901 0 .901zm6.085-2.536c.507 0 .508-.79 0-.79-.508.002-.508.79 0 .79zm11.14-.492l.104-.032a.336.336 0 000-.642l-.104-.032c-.588-.181-.592.889 0 .706zm-4.542.999c.086-.036.15-.063.231-.11a.134.134 0 000-.23 1.785 1.785 0 00-.231-.108c-.371-.153-.374.6 0 .447zm6.022 2.29c.336 0 .336-.522 0-.522-.335 0-.335.522 0 .522z" fill="white"/><path d="M170.128 24.362c-3.347-6.06-8.188-10.173-14.169-13.538-6.795-3.823-13.482-6.03-21.11-7.567C127.126 1.7 119.317.3 111.404.792c-12.845.799-31.366 6.238-35.545 20.164-9.224-1.181-18.596-.957-26.835.154-10.505 1.417-21.149 4.458-29.893 10.623C11.166 37.349 2.87 45.863 1.47 55.946c-.013.096.002.183.015.268-1.844 3.227.532 6.825 3.658 7.823-.209 10.458 7.307 19.98 15.832 25.24 10.926 6.74 24.226 7.892 36.761 7.294 8.576-.41 17.476-1.165 25.906-3.37a.366.366 0 00.258-.067c4.123-1.094 8.132-2.534 11.931-4.464 7.447-3.782 15.196-10.11 18.125-18.25 4.839 2.286 10.168 3.079 15.472 3.473 6.267.466 12.728.706 18.927-.497 8.535-1.656 18.546-7.315 19.809-16.796a.338.338 0 00-.021-.176c.397-.167.79-.356 1.178-.58 4.076-2.358 6.356-7.128 6.73-11.696.569-6.925-2.653-13.867-5.923-19.786zM1.982 56.875c.435.219.997.124 1.091-.487 2.711-17.632 22.371-28.264 37.98-31.944 19.482-4.592 44.588-3.562 61.848 7.579 7.745 4.998 15.267 13.462 15.006 23.248-.155 5.769-3.645 10.002-9.094 11.73-4.106 1.301-8.322.86-12.488 1.572-2.455.42-3.194 1.12-4.253 3.366-2.49 5.282-3.342 12.233-9.941 14.249-9.818 3-11.984-11.272-20.4-12.428-3.997-.55-7.597 1.604-10.824 3.65-4.805 3.044-9.56 5.25-15.376 5.346-12.347.205-21.562-8.33-25.2-19.603a.354.354 0 00-.412-.26.413.413 0 00-.6-.254c-2.037.987-4.433 1.083-6.154-.63-1.424-1.416-1.599-3.313-1.183-5.135zm102.167 24.84a3.392 3.392 0 00-.237-2.285c-.097-.21-.397-.089-.406.11-.047.982-.118 2.05-.401 3.024-2.524 1.977-5.271 3.662-7.984 5.03.573-1.024.825-2.202.504-3.38-.049-.181-.319-.183-.367 0-.376 1.41-.75 2.774-1.483 4.035-.377.176-.753.349-1.126.512-2.637 1.159-5.364 2.1-8.147 2.878.194-.87.205-1.816-.112-2.541-.075-.17-.347-.153-.427 0-.293.564-.353 1.175-.447 1.796-.053.349-.115.7-.165 1.054-3.683.963-7.456 1.645-11.257 2.134.007-.015.023-.02.027-.036.276-1.059.715-2.601.065-3.598-.13-.197-.381-.139-.463.06-.215.517-.14 1.09-.138 1.638.002.608.014 1.217-.031 1.823a.236.236 0 00.06.173c-3.729.464-7.477.752-11.186.947a9.464 9.464 0 00-.483-2.302c-.064-.188-.311-.143-.332.045a9.514 9.514 0 00.017 2.298c-.913.045-1.826.087-2.733.122-1.54.061-3.09.08-4.642.061.106-.77-.071-1.656-.657-2.177-.141-.125-.407-.048-.397.165.032.66.218 1.347.392 1.999-3.736-.074-7.475-.39-11.122-.992-.154-.383-.313-.762-.403-1.175-.14-.637-.131-1.295-.26-1.935-.044-.22-.329-.212-.438-.058-.557.788-.527 1.99-.102 2.957a60.274 60.274 0 01-7.622-1.895.375.375 0 00-.044-.122c-.647-1.1-.93-2.263-1.058-3.525-.018-.183-.28-.301-.38-.103-.556 1.094-.387 2.355.267 3.335-2.866-1-5.597-2.232-8.132-3.727-1.38-1.275-1.802-2.838-2.444-4.543-.084-.225-.417-.256-.488 0-.281 1-.068 2.009.404 2.914a34.591 34.591 0 01-5.34-4.587c-.478-1.525-.835-3.096-1.374-4.603-.056-.154-.314-.144-.304.042.067 1.34.395 2.51.853 3.66-3.826-4.364-6.573-9.88-7.792-16.738 1.262.243 2.6.052 3.806-.754 1.52 8.56 7.911 16.003 16.033 19.087 9.165 3.48 18.043 1.236 26.025-3.815 2.58-1.635 5.478-3.536 8.67-3.526 4.247.014 6.414 3.153 8.776 6.048 2.41 2.95 5.269 6.02 9.231 6.644 3.893.613 7.444-1.434 9.866-4.353 3.893-4.69 3.786-13.255 11.298-13.771 4.837-.332 10.22-.92 14.193-3.514-.472 3.526-1.935 6.75-4.024 9.628a3.457 3.457 0 00-.097-1.585c-.053-.175-.342-.2-.38 0-.214 1.125-.412 2.292-.905 3.335a35.1 35.1 0 01-4.157 4.086zm57.537-16.657c.363-1.144.396-2.38-.232-3.45-.106-.18-.392-.103-.394.108-.007 1.506.078 2.94-.553 4.355-.012.027-.013.053-.019.08a24.484 24.484 0 01-4.722 3.12c.383-1.042.58-2.144.453-3.262-.017-.15-.23-.2-.277-.037-.159.553-.306 1.105-.456 1.656-.592-.114-.67.694-.224.812-.123.429-.257.854-.402 1.277-2.424 1.12-5.071 1.91-7.902 2.415.142-.634.197-1.288.042-1.904-.047-.186-.304-.21-.4-.052-.371.613-.491 1.362-.521 2.098-.901.14-1.813.262-2.747.347a83.473 83.473 0 01-6.411.332c.028-.03.061-.048.076-.098.275-.904.453-1.99.03-2.878-.064-.135-.291-.102-.321.042-.186.874-.099 1.808-.225 2.694a.27.27 0 00.093.244 78.293 78.293 0 01-10.132-.544c.172-.838.157-1.947-.392-2.537-.135-.144-.387-.07-.436.115-.118.443.008.871.055 1.316.035.338.057.676.084 1.014-2.2-.287-4.384-.67-6.536-1.162-.175-1.355-.26-2.756-.603-4.08-.053-.205-.331-.182-.395 0-.429 1.232-.307 2.613.067 3.857a63.39 63.39 0 01-4.104-1.145c.434-1.334.749-2.71.9-4.136a.54.54 0 00-.086-.362c1.505-1.274 2.736-2.916 3.534-5.08a15.4 15.4 0 00.621-2.248c3.289 3.749 8.02 5.845 13.008 6.062 2.61.113 5.252-.29 7.678-1.274 2.795-1.133 4.701-3.24 7.25-4.737 6.098-3.58 13.64.852 20.204-1.271-1.431 3.35-3.326 6.095-5.605 8.313zm8.636-11.783c-3.701 3.321-8.593 2.847-13.141 2.332-2.97-.337-6.104-.908-8.999.134-2.986 1.074-5.059 3.722-7.878 5.109-7.02 3.455-15.315 1.277-20.517-4.268a.638.638 0 00-.394-.205c.666-6.618-2.743-13.415-6.952-18.303-8.634-10.023-21.947-15.1-35.685-17 5.476-15.258 26.812-19.848 41.112-19.041 15.668.884 35.959 5.068 46.96 17.271 5.213 5.784 10.017 15.716 9.797 23.635-.105 3.768-1.428 7.755-4.303 10.336z" fill="white"/><path d="M136.364 26.08c-6.467-1.84-15.313-3.556-21.71-.546a.26.26 0 00-.228-.009c-4.509 1.746-2.098 6.172 1.078 7.866 6.894 3.678 15.466 4.791 23.112 3.693.016-.003.025-.012.04-.015 2.178-.387 4.565-.893 6.103-2.608.008-.006.015-.016.022-.023.025-.027.054-.048.077-.076.011-.013.013-.028.022-.04.033-.04.072-.066.099-.117 2.83-5.167-5.188-7.151-8.615-8.126zm-4.824 9.918c.258-1.052.339-2.13.409-3.216.08-1.254.231-2.586-.188-3.79-.07-.202-.354-.212-.42 0-.354 1.12-.251 2.337-.289 3.503-.038 1.16-.153 2.32-.117 3.48a38.793 38.793 0 01-3.046-.236c.449-2.786.392-5.706.107-8.495-.016-.151-.231-.157-.24 0-.153 2.793-.36 5.628-.331 8.43a39.313 39.313 0 01-2.897-.486c-.28-.058-.559-.133-.839-.195.645-2.156.89-4.875.749-7.076-.013-.206-.293-.248-.359-.048-.693 2.078-1.143 4.727-1.079 6.963a42.604 42.604 0 01-3.066-.843l-.083-.03c.315-1.61.245-3.286.117-4.91-.013-.17-.281-.234-.318-.043-.302 1.544-.558 3.141-.461 4.722a31.592 31.592 0 01-2.812-1.106c.216-.808.252-1.724.071-2.52-.049-.216-.403-.282-.502-.064a5.412 5.412 0 00-.458 2.154c-1.729-.989-2.065-2.844-1.015-5.562 4.929-1.36 9.691-1.346 14.74-.59 2.342.35 16.747 2.867 14.459 7.32-.512.57-1.133.981-1.815 1.285.19-.742.15-1.502-.056-2.264-.042-.154-.316-.18-.34 0-.115.855-.289 1.701-.374 2.56-.683.227-1.399.383-2.102.516.126-.413.236-.836.323-1.277.295-.11.334-.523.122-.72.163-1.11.22-2.246.154-3.283-.015-.229-.306-.259-.387-.052-.645 1.654-1.06 3.672-1.038 5.474a39.774 39.774 0 01-3.666.359c.624-1.718.973-4.097.581-5.825-.039-.173-.275-.148-.327 0-.317.917-.379 1.903-.483 2.863-.107.993-.274 1.982-.293 2.981-.814.03-1.623.04-2.431.021z" fill="white"/><path d="M117.963 29.09c-.236 0-.236.366 0 .366s.237-.366 0-.366zm4.283-1.494c-.417 0-.418.648 0 .648.417 0 .417-.648 0-.648zm.03 4.722c-.584.342.275 1.09.53.53.147-.323-.15-.752-.53-.53zm6.731.11c-.58 0-.581.901 0 .901.58 0 .581-.901 0-.901zm-3.832-2.776c-.38 0-.38.592 0 .592.381 0 .382-.592 0-.592zm9.248-.38l-.008-.113c-.041-.578-.859-.58-.9 0l-.008.113c-.041.588.958.59.916 0zm-.683 4.106c-.517 0-.518.803 0 .803.516 0 .517-.803 0-.803zm4.282-2.225c.389 0 .39-.605 0-.605-.39-.001-.391.605 0 .605zm-7.662-2.464c-.463 0-.464.718 0 .718.462 0 .462-.718 0-.718zm-10.745 34.316c-.266-.242-.721-.08-.721.299 0 .377.455.54.721.298.212-.192.212-.403 0-.597zm4.646 3.44c-.036.04-.073.078-.111.115a.18.18 0 000 .25c.039.036.076.074.111.114.202.22.577.046.577-.238 0-.286-.376-.46-.577-.24zm-4.494 2.423c-.381 0-.381.591 0 .591.38 0 .381-.59 0-.59zm9.916.359c-.498 0-.499.775 0 .775s.5-.775 0-.775zm6.767-4.291c-.294-.195-.688.064-.688.396s.394.59.688.395c.028-.018.054-.037.082-.054a.401.401 0 000-.683l-.082-.053zm2.248 5.384c-.544 0-.545.844 0 .844.544 0 .545-.845 0-.845zm-7.437-4.156c-.381 0-.381.591 0 .591.38 0 .381-.59 0-.59zm12.846-1.29c-.589 0-.59.916 0 .916.589 0 .591-.916 0-.916zm3.831-4.901c-.517 0-.518.803 0 .803.517 0 .518-.803 0-.803zm1.803 5.796c-.598 0-.599.93 0 .93.598 0 .599-.93 0-.93zm-4.282 4.071c-.579 0-.581.901 0 .901.58 0 .581-.901 0-.901zm9.884-6.764a.438.438 0 00-.837 0 4.209 4.209 0 01-.037.102c-.27.757 1.183.761.91 0a2.085 2.085 0 00-.036-.102zm7.695-2.04c.272 0 .272-.423 0-.423-.271 0-.272.423 0 .423zm-8.113-1.536c.616 0 .618-.957 0-.957-.617 0-.618.958 0 .958zm4.318 4.065c-.208.176-.26.375-.283.64-.051.607.995.608.944 0-.022-.262-.074-.464-.283-.64a.276.276 0 00-.378 0zm.865-5.248c-.616 0-.617.958 0 .958s.618-.958 0-.958z" fill="white"/></svg>