<svg width="100" height="100" viewBox="0 0 100 100" fill="red" xmlns="http://www.w3.org/2000/svg">
<path d="M78.868 41.128a.778.778 0 10-1.557 0v2.024a.778.778 0 101.557 0v-2.024zm-.778 3.892c.43 0 .778.348.778.778v31.828a.778.778 0 11-1.557 0V45.798a.78.78 0 01.778-.779zM60.032 13.85l.237.742a75.54 75.54 0 01-.236-.742l.003-.001.006-.002.017-.005.058-.017a8.226 8.226 0 01.907-.192 8.551 8.551 0 012.295-.048c1.825.22 3.988 1.167 5.211 3.963a.778.778 0 01-1.426.624c-.956-2.184-2.567-2.872-3.971-3.041a6.992 6.992 0 00-2.624.2l-.005.002a.778.778 0 01-.472-1.483z" fill="red"/><path fill-rule="evenodd" clip-rule="evenodd" d="M62.68 10a8.92 8.92 0 00-7.908 4.741.085.085 0 01-.013.012.142.142 0 01-.045.021.088.088 0 01-.04.004c-2.617-1.63-5.813-2.534-9.183-2.207-7.138.578-12.966 6.237-13.624 13.389-.329 3.614.659 6.977 2.456 9.755l.23.355h.033l.313.458v5.846h-12.53c-2.976 0-5.369 2.663-5.369 5.758v22.024c0 3.164 2.386 5.836 5.37 5.836h12.529v11.284A2.705 2.705 0 0037.623 90h42.646a2.705 2.705 0 002.723-2.724V26.887c0-5.8-4.706-10.506-10.506-10.506-.325 0-.65.025-.973.075l-.008-.002H71.5l-.007-.003-.011-.003a.262.262 0 01-.054-.021C70.234 12.714 66.841 10 62.681 10zM36.456 38.603c2.903 3.556 5.676 5.22 9.427 7.47l.134.08a3.042 3.042 0 011.49 2.602v14.397c0 1.275.862 2.494 2.294 2.714l.031.005.032.003c1.572.112 2.779-1.136 2.779-2.644V47.82c0-.8.58-1.432 1.297-1.48.687-.046 1.349.575 1.349 1.324v1.479c0 1.683 1.282 3.238 2.986 3.345h.006a3.192 3.192 0 003.39-3.19v-7.59l-.005-.042c-.26-2.408 1.546-4.04 3.35-4.04h16.42v49.65c0 .659-.507 1.167-1.166 1.167H37.623a1.15 1.15 0 01-1.168-1.168V38.603zM34.9 48.911v20.466h-7.782c-1.986 0-3.658-1.752-3.658-4.124V53.035c0-2.372 1.672-4.124 3.658-4.124H34.9zm0-4.981v3.424h-7.782c-2.995 0-5.214 2.606-5.214 5.681v12.218c0 3.075 2.22 5.68 5.214 5.68H34.9v3.503H22.37c-1.996 0-3.813-1.842-3.813-4.28V48.132c0-2.352 1.81-4.202 3.814-4.202H34.9zM56.13 15.5a7.365 7.365 0 016.55-3.944c3.448 0 6.27 2.244 7.268 5.355.108.391.382.666.646.83.277.174.614.275.957.275h.065l.063-.011c.27-.045.538-.067.806-.067 4.94 0 8.95 4.01 8.95 8.95v9.182h-16.42c-2.698 0-5.239 2.394-4.903 5.721V49.3c0 .946-.784 1.687-1.744 1.635-.785-.05-1.525-.829-1.525-1.791v-1.479c0-1.585-1.36-2.987-3.009-2.877-1.617.108-2.75 1.5-2.75 3.033V63.23c0 .659-.487 1.118-1.08 1.093-.573-.103-.943-.59-.943-1.171V48.755a4.598 4.598 0 00-2.245-3.936l-.123-.073c-4.546-2.728-7.428-4.457-10.924-9.706a.826.826 0 00-.243-.332c-1.56-2.481-2.398-5.44-2.11-8.606.587-6.387 5.806-11.465 12.206-11.98h.006l.007-.001c3.003-.293 5.868.511 8.228 1.986l.006.004.006.004c.784.47 1.797.152 2.235-.578l.01-.018.01-.019z" fill="red"/></svg>