<svg width="100" height="100" viewBox="0 0 100 100" fill="red" xmlns="http://www.w3.org/2000/svg">
<path d="M41.976 10.137c.17.117.286.298.323.501l5.653 31.597a.775.775 0 01-1.525.273l-5.515-30.827-7.079 1.339 4.052 23.411a.774.774 0 01-1.526.265l-4.182-24.163a.774.774 0 01.619-.893l8.596-1.627a.774.774 0 01.584.124zm33.085 39.141c.42.08.695.487.614.907l-.387 2.013a.775.775 0 01-1.52-.292l.386-2.014a.774.774 0 01.907-.614zm-.24 5.178a.774.774 0 00-1.516-.315l-4.26 20.522a.774.774 0 001.517.315l4.26-20.522z" fill="red"/><path fill-rule="evenodd" clip-rule="evenodd" d="M19.17 39.951a.774.774 0 01.604-.29h17.038c.233 0 .454.105.601.286l4.8 5.907 17.228-.149 4.649-5.756a.774.774 0 01.602-.288h16.34a.774.774 0 01.758.938L71.257 89.39a.775.775 0 01-.757.61H30.617a.774.774 0 01-.756-.606l-10.843-48.79a.774.774 0 01.152-.653zm1.57 1.26l10.498 47.24h38.637l10.198-47.24h-15.01l-4.647 5.752a.774.774 0 01-.596.288l-17.967.155a.775.775 0 01-.608-.286l-4.801-5.91H20.74z" fill="red"/><path d="M47.732 15.499a.775.775 0 00-.774.738l-.542 11.694a.775.775 0 001.547.072l.508-10.956h4.572l-.974 23.356a.774.774 0 101.548.065l1.007-24.163a.774.774 0 00-.774-.806h-6.118z" fill="red"/><path d="M53.088 10.711a.775.775 0 01.84-.63l11.462 1.162a.775.775 0 01.69.864L64.144 28.06a.774.774 0 11-1.537-.186l1.84-15.17-9.965-1.01-.413 2.241a.774.774 0 01-1.523-.28l.542-2.944zm5.87 19.661a.774.774 0 00-.846.703l-1.006 11.461a.775.775 0 001.542.136l.939-10.684 4.867.47-.531 4.716a.774.774 0 101.539.173l.62-5.498a.775.775 0 00-.696-.858l-6.428-.62zm8.138-10.997a.775.775 0 01.844-.698l8.984.852a.775.775 0 01.694.875l-2.245 16.573a.774.774 0 01-1.535-.208l2.137-15.774-8.18-.776a.774.774 0 01-.699-.844zm-35.568 4.38a.775.775 0 00-.43-1.488l-7.511 2.168a.774.774 0 00-.516 1.002L26.866 36.2a.774.774 0 101.46-.515l-3.521-9.99 6.723-1.941z" fill="red"/></svg>