<svg width="100" height="100" viewBox="0 0 100 100" fill="red" xmlns="http://www.w3.org/2000/svg">
<path fill-rule="evenodd" clip-rule="evenodd" d="M13.352 34.774l-2.725.769c-.127 5.409.834 11.074 1.843 15.428a87.172 87.172 0 001.423 5.361 65.501 65.501 0 00.641 2.014l.006.015c7.447 18.463 19.881 25.85 30.79 28.58 10.226 2.559 19.153 1.032 21.444.563l1.221-5.603C51.191 77.126 38.05 66.299 28.857 56.2c-8.971-9.854-14.228-19.064-15.505-21.426zm.431 23.871l-.762.267-.001-.003-.003-.007-.01-.029-.037-.108a66.828 66.828 0 01-.625-1.967 88.54 88.54 0 01-1.449-5.463c-1.036-4.47-2.042-10.379-1.879-16.049.007-.698.514-1.089.957-1.237a.759.759 0 01.036-.01l3.136-.885a1.3 1.3 0 01.877.023c.299.12.534.353.659.658 1.048 1.963 6.272 11.284 15.37 21.277 9.172 10.076 22.234 20.783 38.874 25.372.05.014.1.033.147.056.22.11.434.3.553.576.108.252.115.532.021.791l-1.345 6.174a1.06 1.06 0 01-.602.851.81.81 0 01-.186.066c-1.504.334-11.26 2.342-22.575-.49-11.361-2.843-24.246-10.556-31.905-29.561a1.036 1.036 0 01-.013-.035l.762-.267z" fill="red"/><path fill-rule="evenodd" clip-rule="evenodd" d="M28.848 10.454a.808.808 0 01.525-.195h.08a.81.81 0 01.18.02l3.508.798a.871.871 0 01.756.879.84.84 0 01-.002.055c-.718 10.534 1.68 21.42 2.482 24.628a14.817 14.817 0 00.393 1.655c3.089 9.86 10.098 18.122 16.643 24.085 6.539 5.958 12.544 9.559 13.512 10.101a.81.81 0 01.177.134c.33.33.32.736.318.869v.025c0 .072-.01.143-.03.213l-.969 3.554a.808.808 0 11-1.558-.425l.87-3.193c-1.75-1.034-7.357-4.57-13.408-10.083-6.64-6.051-13.887-14.548-17.099-24.801l-.003-.01a16.411 16.411 0 01-.42-1.757c-.804-3.223-3.16-13.914-2.56-24.476l-2.636-.6c-1.563 1.374-8.46 8.133-9.04 23.401a.808.808 0 01-1.613-.061c.644-16.993 8.88-23.959 9.842-24.773l.052-.043z" fill="red"/><path fill-rule="evenodd" clip-rule="evenodd" d="M47.331 10.155c.945-.393 1.954.013 2.463.65l.009.01 1.37 1.773c.468.591.66 1.487.252 2.229-.486 1.182-1.03 3.418-1.461 5.436a120.451 120.451 0 00-.718 3.642l-.01.057-.003.012c-2.942 18.542 4.382 30.205 5.765 32.202a.821.821 0 01.058.098c.158.316.135.647.054.89-.081.243-.261.52-.577.679a.81.81 0 01-.157.059l-1.858.484a.808.808 0 01-.408-1.563l1.174-.306c-2.107-3.284-8.473-14.993-5.645-32.804l.002-.013.796.14-.796-.14.004-.021.01-.06.041-.224c.036-.194.087-.474.153-.818.13-.687.316-1.63.535-2.652.431-2.016 1.01-4.434 1.57-5.767a.812.812 0 01.052-.104c.031-.052.061-.252-.1-.453l-.008-.01-1.368-1.77a.575.575 0 00-.272-.171.454.454 0 00-.349.023c-2.153.798-7.364 3.152-10.204 7.142a.808.808 0 01-1.316-.936c3.13-4.399 8.722-6.89 10.942-7.714zM91.22 78.321a1.989 1.989 0 00-2.446-2.442l-.012.003-15.59 4.524a.808.808 0 00-.58.695l-.403 4.04a.808.808 0 00.572.853l.232-.773-.232.773.003.001.006.002.022.007.082.023a30.124 30.124 0 001.434.358 37.01 37.01 0 003.865.648c3.098.349 7.13.384 10.623-.98a.81.81 0 00.277-.18 1.06 1.06 0 00.307-.587l1.84-6.965zM73.866 84.62c.217.055.485.12.796.19.915.204 2.203.45 3.693.619 2.894.325 6.458.342 9.516-.753l1.791-6.775a.373.373 0 00-.457-.464l-15.058 4.37-.281 2.813z" fill="red"/><path fill-rule="evenodd" clip-rule="evenodd" d="M47.479 16.029c.383.23.507.726.277 1.108l-.02.033c-.391.642-4.612 7.567-2.55 16.577a.808.808 0 01-1.576.36c-2.207-9.647 2.3-17.046 2.738-17.763l.023-.038a.808.808 0 011.108-.277zM22.026 53.743a.808.808 0 011.102.3c.146.256 1.574 2.68 3.89 5.492 2.325 2.824 5.49 5.973 9.095 7.756a.808.808 0 11-.716 1.448c-3.907-1.932-7.245-5.286-9.626-8.177-2.39-2.902-3.869-5.407-4.046-5.717a.808.808 0 01.3-1.102z" fill="red"/></svg>