<svg width="100" height="100" viewBox="0 0 100 100" fill="red" xmlns="http://www.w3.org/2000/svg"><path fill-rule="evenodd" clip-rule="evenodd" d="M34.633 49.119l10.183 38.205v.002c.615 2.251 3.156 4.044 6.223 4.044 3.223 0 5.749-1.863 6.297-4.255v-.003l8.4-38a.189.189 0 00-.023-.027.355.355 0 00-.245-.104H34.981a.476.476 0 00-.33.118.207.207 0 00-.018.02zm-1.136-1.173a2.1 2.1 0 011.484-.595h30.487c.558 0 1.074.24 1.426.61.348.365.589.927.425 1.542L58.927 87.47v.005C58.168 90.788 54.825 93 51.038 93c-3.615 0-6.943-2.119-7.796-5.247l-.002-.005-10.188-38.225c-.175-.626.07-1.203.445-1.577zm3.46-33.025C39.537 10.192 44.449 7 50.224 7a14.907 14.907 0 0113.189 7.926c.316.566.806.98 1.392 1.157 6.906 2.071 11.642 9.058 10.353 16.888-.952 6.05-5.865 11.043-11.905 12.165l-.007.001c-4.375.772-8.431-.257-11.627-2.59l-.009-.005-.008-.007c-.754-.58-1.985-.603-2.853.012-3.12 2.337-7.26 3.362-11.549 2.59h-.002c-6.13-1.123-10.953-6.121-11.988-12.159v-.005a15.008 15.008 0 0110.42-16.886c.513-.175 1.008-.593 1.327-1.166zm13.267-6.29c-5.147 0-9.527 2.838-11.837 7.074l-.004.006c-.494.89-1.298 1.61-2.248 1.926l-.011.004-.012.003c-6.143 1.843-10.446 8.064-9.294 15.062.922 5.373 5.228 9.829 10.672 10.826 3.86.695 7.541-.234 10.289-2.295l.007-.006.008-.005c1.41-1.008 3.43-1.031 4.793.01 2.834 2.065 6.436 2.99 10.372 2.297 5.37-1 9.747-5.46 10.589-10.819l.001-.006c1.155-7.006-3.076-13.223-9.212-15.064-1.04-.312-1.854-1.035-2.353-1.933l-.005-.008-.004-.008a13.277 13.277 0 00-11.75-7.065z" fill="red"/><path fill-rule="evenodd" clip-rule="evenodd" d="M50.224 11.891l-.04-.814a.815.815 0 00.08 1.628h.009l.043-.001a9.44 9.44 0 01.893.035c.603.052 1.427.176 2.313.458 1.77.565 3.731 1.742 4.752 4.221a.815.815 0 001.508-.62c-1.262-3.064-3.702-4.496-5.764-5.154a12.39 12.39 0 00-3.5-.571 7.38 7.38 0 00-.304.003h-.03l.04.815zm11.893 41.017a.815.815 0 01.646.955l-.407 2.12a.815.815 0 11-1.601-.308l.407-2.12a.815.815 0 01.955-.647zm-.885 4.405c.44.091.724.523.632.964l-4.483 21.601a.815.815 0 11-1.596-.33l4.483-21.603a.815.815 0 01.964-.632z" fill="red"/></svg>