<svg width="83" height="52" viewBox="0 0 83 52" fill="none" xmlns="http://www.w3.org/2000/svg"><path d="M67.287 41.264a6.312 6.312 0 01-1.536-.192c-.704-.256-1.536-.512-2.112-1.024-.448-.32-.768-.832-.96-1.28-.256-.768-.32-1.536-.384-2.304-.064-1.408.256-2.752.704-3.968a29.053 29.053 0 013.648-6.464c.384-.448.704-.896 1.024-1.28.256-.32.32-.512.256-.896a57.263 57.263 0 00-.704-3.2c-.128-.448-.128-.96-.256-1.408-.128-.512-.256-.96-.384-1.536-.128-.704-.256-1.344-.384-2.048-.064-.128 0-.32-.064-.448-.128-.256-.128-.576-.192-.832 0-.32-.064-.576-.064-.832 0-.064-.064-.128-.064-.192 0-1.024-.128-1.984-.128-2.944.128-1.472.256-2.944.704-4.352.256-.576.384-1.088.64-1.6.768-1.6 1.984-2.816 3.648-3.648.704-.384 1.6-.576 2.496-.576 1.728 0 3.328.512 4.864 1.472.704.384 1.344 1.024 1.856 1.728.32.512.512 1.024.64 1.664a.547.547 0 010 .448c-.064.448-.448.576-.832.256-.064 0-.192-.064-.256-.192-.128-.128-.192-.448-.448-.512-.064 0-.128-.192-.128-.256-.128-.32-.256-.576-.32-.768-.448-.832-1.152-1.344-1.984-1.664-1.024-.32-2.176-.512-3.264-.256-.128 0-.32.064-.448.128-.576.384-1.216.832-1.728 1.408-.576.576-.896 1.28-1.152 1.984-.256.896-.384 1.792-.576 2.624-.128.576-.064 1.152-.192 1.728v.32c.064.64 0 1.344.064 2.048.192.96.128 1.92.32 2.816.192.448.192.832.192 1.216.192 1.344.64 2.688.896 4.096.064.192.128.384.256.64.704-.512 1.28-1.088 1.92-1.6 1.152-.96 2.304-1.856 3.456-2.752.96-.704 1.856-1.408 2.752-2.112l1.92-1.344c.96-.704 2.24.576 1.152 1.408-.896.768-1.92 1.536-2.88 2.304-.256.128-.576.384-.768.512-.064.064-.192.128-.192.192-.64.64-1.472 1.216-2.176 1.728-1.344 1.088-2.624 2.176-3.84 3.456-.192.256-.512.448-.768.768l.192 1.344c.256.896.32 1.728.384 2.624.064 1.024.256 2.112.064 3.072v.448a7.21 7.21 0 01-.128 2.048c-.064.704-.256 1.408-.384 2.112a11.304 11.304 0 01-.96 2.688c-.256.64-.512 1.344-.96 1.856-.64.832-1.408 1.28-2.432 1.344zm-1.984-2.432c.32.064.576-.064.832-.32.128-.256.384-.512.512-.768.704-1.216 1.152-2.56 1.472-3.84.192-.704.192-1.408.256-2.112.128-.448.128-.896.064-1.28.064-.704.064-1.472 0-2.176.064-.256 0-.576 0-.96-.128.128-.256.192-.32.256-.384.576-.832 1.216-1.216 1.792-1.024 1.536-1.728 3.264-2.112 5.12-.256 1.344-.256 2.56.192 3.776.128.192.128.448.32.512z" fill="#000"/><path d="M39.88 31.216c-.96-.448-1.727-1.024-2.111-2.048a6.695 6.695 0 01-.256-1.088c-.128-.448-.256-.896-.192-1.344.064-.192 0-.384 0-.512-.192-.896-.128-1.792-.064-2.624 0-.576.128-1.152.128-1.664.064-.512.064-1.024.128-1.536.128-3.008.895-10.496 1.535-11.008 1.664-1.088 3.136.32 3.264 1.408 0 .576.065 1.152-.063 1.792-.065.384-.065.704-.065 1.088-.127 1.344-.447 2.688-.575 4.032-.129 1.088-.32 2.24-.32 3.392-.065.896-.193 1.728-.257 2.624 0 .576-.063 1.088-.063 1.664-.065.512-.129 1.024-.129 1.536 0 .576-.128 1.152 0 1.728.192 0 .32-.128.384-.256.64-1.024 1.217-1.984 1.729-3.072.703-1.536 1.407-3.136 2.111-4.672.32-.768.769-1.536 1.089-2.368.575-1.216 1.087-2.496 1.663-3.776.192-.512.384-1.024.448-1.6 0-.192.064-.32.128-.512.192-.384.512-.576.896-.512a4.04 4.04 0 011.857.64c.383.32.64.768.64 1.344-.064.32-.064.704-.128 1.088-.128.704-.256 1.472-.448 2.176-.257.832-.32 1.728-.449 2.624-.127.448-.191.96-.255 1.408v.576a1.75 1.75 0 01.255-.32c.833-1.344 1.473-2.752 2.24-4.096a89.599 89.599 0 012.176-4.288c.384-.704.832-1.344 1.216-2.048.128-.128.256-.32.448-.448.192-.256.448-.384.768-.256.193.064.385.064.577.064.447.128.767.32.831.832.065.32.129.704.129 1.088-.065.576 0 1.088.127 1.664.065.512.32 1.024.577 1.472.192.128.384.064.576 0 .832-.192 1.664-.512 2.495-.832.576-.256 1.153-.576 1.728-.832 1.28-.704 2.496.384 1.984.96-.192.256-.32.448-.576.576-.511.32-.96.576-1.535.832-.897.448-1.857.704-2.816 1.088-.192.064-.384.064-.576.064-.448.064-.896 0-1.28-.192-.256-.064-.448-.192-.64-.256a2.9 2.9 0 01-1.089-.832 5.549 5.549 0 01-.895-1.728c-.129.128-.193.192-.193.256-.831 1.472-1.6 3.008-2.367 4.48-.384.832-.832 1.6-1.216 2.368-.32.576-.64 1.216-.96 1.792l-1.152 1.728c-.32.512-.833.704-1.473.64-.64 0-1.215-.192-1.727-.512-.385-.256-.64-.64-.833-1.024-.192-.576-.448-1.088-.512-1.792-.256.192-.32.448-.384.64-.64 1.408-1.215 2.752-1.92 4.096-.511 1.088-1.087 2.112-1.727 3.008-.257.32-.513.64-.833.832-.575.448-1.215.576-1.855.448h-.193z" fill="#000"/><path d="M21.898 25.584c-.256-.064-.512-.128-.768-.256-1.792-1.024-2.816-2.56-2.944-4.672-.064-.832.064-1.664.256-2.432.256-.832.448-1.664.768-2.496.448-.896.832-1.856 1.472-2.688.128-.256.32-.576.448-.832A15.993 15.993 0 0123.626 9.2c.832-.832 1.792-1.536 2.88-1.92.512-.192 1.024-.192 1.472.128.256.192.576.448.832.704.256.192.448.512.448.832 0 .256.064.512 0 .768-.128.832-.32 1.664-.64 2.432-.448 1.152-1.152 2.176-2.112 3.072-.448.448-.96.896-1.472 1.216-.256.192-.512.32-.768.448-.448.192-.896.448-1.472.192-.32.576-.384 1.088-.576 1.6-.32.96-.448 1.984-.448 2.944 0 .576.128 1.216.256 1.728.064.512.384.64.768.576.896-.128 1.856-.384 2.688-.768 1.536-.64 2.816-1.536 4.032-2.624 1.984-1.856 4.992-4.608 6.848-6.592 1.28-1.28 2.944-.64 2.24.448-.576.768-1.6 1.728-2.176 2.368-.896.896-1.792 1.792-2.752 2.688-.832.832-1.728 1.536-2.56 2.368-.768.704-1.664 1.344-2.56 1.92a17.3 17.3 0 01-3.968 1.856 4.8 4.8 0 01-2.688 0zm2.112-10.816c1.472-1.088 2.624-2.368 2.944-4.352-.384.32-1.344 1.6-2.112 2.752-.32.512-.64 1.024-.832 1.6z" fill="#000"/><path d="M10.792 40.112c-1.024-.192-1.728-.832-2.368-1.6-.576-.832-.96-1.792-1.024-2.88-.192-2.56 0-5.632.064-6.336 0-.512.128-1.088.192-1.6.192-1.088.448-2.176.576-3.264.192-1.28.576-2.496.832-3.776l.384-1.728c.256-1.024.576-1.984.832-3.008.064-.32.192-.576.256-.896.064-.192.064-.32.064-.512-.256.128-.384.384-.512.64-.384.576-.768 1.216-1.152 1.792-.832 1.472-1.728 2.88-2.624 4.288-.32.512-.64 1.024-1.024 1.472-.256.384-.576.576-.96.832-.512.384-1.088.384-1.728.192-.64-.256-1.216-.576-1.728-1.024-.256-.192-.448-.448-.512-.768-.448-3.392-.128-5.12.448-7.488.128-.704.32-1.408.512-2.112.384-1.024.704-2.048 1.088-3.072.128-.32.384-.576.512-.896.128-.192.32-.32.448-.448.448-.256.96-.064 1.408-.128.192 0 .448.128.576.256.512.448.896.896.768 1.6l-.384 1.536c-.448 1.408-.896 2.88-1.216 4.352-.32 1.408-.576 2.816-.704 4.288-.064.32 0 .704 0 1.088.192.064.384-.32 1.6-2.24.448-.704.896-1.408 1.344-2.176.384-.576.704-1.216 1.088-1.856l.192-.384c.896-1.344 1.792-2.752 2.752-4.096.256-.32.512-.64.768-.896.448-.576 1.024-.64 1.6-.448.576.192 1.088.448 1.536.832.448.384.576.832.576 1.344 0 .512-.064 1.024-.192 1.536-.32 1.152-.576 2.368-.896 3.52-.32 1.024-.576 2.112-.896 3.136l-.576 2.496c-.192.896-.384 1.728-.576 2.56-.256 1.28-.96 5.44-1.088 8.192-.064 1.6.064 3.712.064 4.544.192.064.256-.064.256-.128.448-.96.768-1.92 1.024-2.88.448-1.536.832-3.136 1.28-4.672.384-1.472.832-3.008 1.216-4.48.384-1.344.768-2.624 1.152-3.968.192-.704.384-1.472.576-2.24.192-.768 1.152-3.52 1.856-4.672.704-1.152 2.624-.832 1.92.448-.832 1.728-1.6 3.52-1.92 4.864-.704 2.56-1.344 5.12-2.048 7.68-.576 2.304-1.152 4.608-1.792 6.912-.448 1.536-.896 3.136-1.536 4.608l-.384.768c-.32.64-1.28 1.024-1.92.896z" fill="#000"/><path d="M52.747 51.059c-.495-.099-.924-.33-1.188-.792-.264-.429-.495-.858-.627-1.353l-.1-.198a3.892 3.892 0 01-.197-.891c-.066-.528-.066-1.056-.1-1.584 0-.429.067-.825.067-1.221 0-.132.033-.264.033-.462-.231.231-.43.429-.66.594-.165.165-.363.33-.561.462-.792.462-1.75.363-2.41-.33-.131-.165-.263-.297-.362-.495a2.904 2.904 0 01-.165-.495c-.066-.495 0-.957.033-1.419.132-1.122.825-3.333.858-3.465.099-.33.198-.66.33-.957.165-.462.33-.891.528-1.32.198-.462.429-.924.759-1.32.396-.528.924-.825 1.617-.924.132-.033.23 0 .363.033.462.132.89.33 1.188.693.033.033.099.066.132.099.099-.132.132-.264.165-.396l.396-1.584c.198-.759.429-1.518.627-2.277.165-.627.33-1.221.528-1.815.132-.429.264-.891.429-1.32l.495-1.485c.264-.726.495-1.485.825-2.178.198-.396.396-.825.66-1.188.165-.297.363-.561.627-.759.165-.132.33-.198.495-.264.066-.033.132-.066.198-.033.297 0 .594.066.858.198a.936.936 0 01.297.33c.099.165.165.396.198.594.033.462.033.957-.033 1.419-.132 1.254-.396 2.475-.726 3.696-.231.792-.462 1.617-.726 2.409a38.495 38.495 0 01-1.254 3.234 95.124 95.124 0 01-1.353 3.201 30.717 30.717 0 01-1.254 2.574 1.568 1.568 0 00-.198.792v.165a.347.347 0 01-.165.297c-.1.033-.165.033-.264.066-.1.198-.1.396-.132.627-.1.396-.132.792-.198 1.188l-.1.693c-.032.528-.098 1.089-.131 1.65a26.507 26.507 0 00-.066 1.65c0 .429.066.858.066 1.287-.033.231.033.429.066.66.033.165.033.33.066.462 0 .165.066.33.132.495.264-.132.429-.33.56-.528 1.189-1.485 3.037-8.844 3.664-10.923.165-.561.99-.231.924.495-.033.363-2.277 8.943-3.498 10.791-.198.33-.462.627-.792.891-.264.231-.594.264-.924.231zm-4.29-6.369c.033-.033.099-.033.165-.066.132-.066.264-.165.396-.264.66-.561 1.254-1.122 1.782-1.815.066-.132.165-.264.165-.396 0-.099.033-.198.033-.297.066-.264.099-.561.132-.825.132-.627.264-1.287.396-1.947a3.99 3.99 0 01.165-.594c.033-.132.066-.264.099-.363.033-.165.066-.363.099-.528 0-.099.066-.198.066-.33 0-.066 0-.198-.066-.264-.132-.33-.33-.66-.66-.924-.033.033-.1.033-.1.066-.197.198-.362.429-.527.66a8.89 8.89 0 00-.528.957l-.297.693c-.132.363-.297.759-.396 1.122-.165.429-.33.891-.462 1.32-.165.726-.363 1.419-.462 2.145a8.452 8.452 0 00-.1 1.287c0 .132 0 .231.1.363zm5.775-8.382c.033 0 .066-.033.066-.099a57.017 57.017 0 001.386-3.267 50.77 50.77 0 001.353-3.96c.23-.825.462-1.683.627-2.541.132-.627.23-1.287.264-1.947v-.165h-.033c-.033.033-.066.066-.066.099-.396.924-.693 1.881-.99 2.838-.165.495-.33 1.023-.495 1.518l-.495 1.584c-.165.528-.297 1.056-.462 1.584l-.396 1.386c-.165.528-.297 1.089-.462 1.617-.132.462-.198.924-.297 1.353zM40.27 45.944c-.429-.132-.792-.33-1.056-.693-.132-.165-.23-.33-.33-.495a.721.721 0 00-.099-.165c-.33-.924-.165-2.409 0-3.036.231-.891.495-1.782.858-2.64.165-.396.33-.792.528-1.188.132-.198.264-.396.43-.561.197-.198.362-.198.626-.066.198.099.43.165.627.231h.066a.812.812 0 01.858-.099c.033.033.1.033.165.066.264.066.43.231.528.495.198.396.297.825.297 1.287v.792c.066.066.132.033.198.033 1.056-.198 2.112-.693 2.64-1.452.43-.561.99.33.165.99-.594.627-1.749 1.32-3.102 1.419-.033.231-.099.462-.165.726a9.276 9.276 0 01-.594 1.848c-.099.264-.23.528-.363.825a3.746 3.746 0 01-.99 1.287l-.495.297a1.117 1.117 0 01-.792.099zm.297-1.287c.231-.099.363-.264.528-.396.33-.33.528-.726.726-1.122.33-.594.528-1.254.693-1.914.066-.231.132-.462.132-.693-.198-.165-.396-.264-.56-.429a4.25 4.25 0 01-.529-.561.532.532 0 00-.132.231c-.099.264-.198.561-.297.825a20.005 20.005 0 00-.627 2.31c-.099.495-.066.957-.066 1.452 0 .099 0 .231.132.297zm2.211-5.016a5.974 5.974 0 000-1.089c-.033-.066-.066-.132-.066-.264-.066.066-.066.099-.099.132-.132.396-.132.792.066 1.155 0 .033.066.033.1.066zm-10.265 6.303c-.43-.132-.792-.33-1.056-.693-.132-.165-.231-.33-.33-.495a.721.721 0 00-.1-.165c-.33-.924-.164-2.409 0-3.036.232-.891.496-1.782.859-2.64.165-.396.33-.792.528-1.188.132-.198.264-.396.429-.561.198-.198.363-.198.627-.066.198.099.429.165.627.231h.066a.812.812 0 01.858-.099c.033.033.099.033.165.066.264.066.429.231.528.495.198.396.297.825.297 1.287v.792c.066.066.132.033.198.033 1.056-.198 2.112-.693 2.64-1.452.429-.561.99.33.165.99-.594.627-1.75 1.32-3.102 1.419-.033.231-.1.462-.165.726a9.276 9.276 0 01-.594 1.848c-.1.264-.231.528-.363.825a3.746 3.746 0 01-.99 1.287l-.495.297a1.117 1.117 0 01-.792.099zm.297-1.287c.23-.099.363-.264.528-.396.33-.33.528-.726.726-1.122.33-.594.528-1.254.693-1.914.066-.231.132-.462.132-.693-.198-.165-.396-.264-.561-.429-.198-.165-.363-.363-.528-.561a.532.532 0 00-.132.231c-.1.264-.198.561-.297.825a20.005 20.005 0 00-.627 2.31c-.1.495-.066.957-.066 1.452 0 .099 0 .231.132.297zm2.21-5.016a5.974 5.974 0 000-1.089.511.511 0 01-.065-.264c-.066.066-.066.099-.1.132-.131.396-.131.792.067 1.155 0 .033.066.033.099.066z" fill="#FF654D"/><path d="M24.726 50.564c-.396 0-.759-.099-1.155-.231-.033-.033-.066-.033-.099-.066a2.063 2.063 0 01-.594-.726c-.066-.396-.297-.759-.297-1.188.033-.297-.066-.627-.033-.924 0-.594.033-1.155.099-1.749.033-.495.099-.957.165-1.419.033-.231.066-.429.132-.627-.066-.066-.099-.099-.132-.165a.737.737 0 01.165-1.089c.033-.033.099-.066.132-.099s.066-.099.099-.132.033-.066.033-.099c.066-.297.132-.594.198-.924-.066-.033-.165-.066-.231-.099.033-.165.066-.264.066-.396.099-.066.198-.099.33-.165 0-.099.033-.231.066-.33.231-.792.429-1.584.66-2.376.165-.594.363-1.155.528-1.716.264-.891.561-1.749.891-2.64.165-.462.363-.924.528-1.386.198-.561.462-1.089.693-1.65.297-.66.627-1.353.99-1.98.396-.693.825-1.386 1.32-2.013.198-.231.363-.462.561-.66.297-.264.594-.561.957-.792.099-.066.198-.099.297-.132.198-.066.396-.132.594-.165.726-.132 1.32.264 1.584.924.132.363.132.726.132 1.089a8.82 8.82 0 01-.264 1.584 17.698 17.698 0 01-1.188 3.201 42.73 42.73 0 01-1.122 2.112c-.231.429-.495.858-.759 1.287-.396.693-.858 1.32-1.353 1.947-.363.462-.693.924-1.122 1.353-.198.198-.363.429-.561.66l-.528.528c-.198.198-.429.396-.627.594-.099.099-.198.198-.198.363-.132.462-.231.957-.363 1.419a5.127 5.127 0 01-.165.759c.099.099.165.066.231.066 1.749-.924 4.455-2.871 5.544-3.894.792-.891 1.848-.297 1.155.363-.858.726-3.894 3.201-6.171 4.257.033.099.066.165.099.231.264.363.429.759.561 1.188.099.297.165.627.198.924.066.66.099 1.353.033 2.013a4.84 4.84 0 01-.792 2.112 3.534 3.534 0 01-.627.594.921.921 0 01-.66.264zm-.066-1.254c.066 0 .099-.033.099-.033.132-.165.297-.33.396-.528.231-.462.396-.99.462-1.518.099-.891.099-1.749-.198-2.607a6.233 6.233 0 00-.363-.825c0-.066-.066-.099-.132-.066a18.05 18.05 0 00-.264 1.419 27.514 27.514 0 00-.165 1.716c-.033.726 0 1.485.099 2.244 0 .066.033.132.066.198zm1.815-11.55c.033-.033.066-.033.099-.066.297-.363.594-.693.858-1.056a32.66 32.66 0 001.254-1.716c.363-.594.726-1.221 1.089-1.815.363-.594.66-1.221.957-1.848.495-1.023.924-2.079 1.188-3.201a6.68 6.68 0 00.231-1.815c0-.198-.033-.396-.132-.594-.165.066-.231.132-.33.231-.264.198-.462.495-.66.792-.231.297-.462.594-.627.924-.396.726-.792 1.452-1.122 2.244a4.858 4.858 0 00-.33.726 92.374 92.374 0 00-.693 1.716c-.198.495-.396.99-.561 1.518a42.543 42.543 0 00-.66 1.881c-.033.132-.066.231-.099.363l-.396 1.188c-.033.165-.099.33-.066.528z" fill="#FF654D"/></svg>