<svg width="100" height="100" viewBox="0 0 100 100" fill="red" xmlns="http://www.w3.org/2000/svg">
  <path fill-rule="evenodd" clip-rule="evenodd" d="M69.77 29.096l-.144.773.145-.773a.787.787 0 01-.291 1.546h-.002l-.01-.002-.04-.007a31.783 31.783 0 00-.825-.132 51.965 51.965 0 00-2.483-.3 65.377 65.377 0 00-8.563-.264c-6.914.244-15.602 1.685-22.907 6.414l-.013.009-.013.007-.006.004-.027.016a17.077 17.077 0 00-.558.363 27.15 27.15 0 00-1.61 1.186 33.527 33.527 0 00-4.865 4.73c-3.506 4.189-6.897 10.396-6.554 18.56l.001.017v.017c0 1.4-.964 2.54-2.19 2.95l-.014.004-7.246 2.126c-.673.21-1.087.936-.955 1.51l.006.026.47 2.98c.114.422.375.77.71.965l23.336 12.178.017.008.1.045c.091.04.23.1.412.174.365.148.907.354 1.603.582a33.16 33.16 0 005.845 1.32c4.885.654 11.485.46 18.392-2.917 6.894-3.37 12.127-9.28 15.368-16.226l.001-.002c.621-1.32 1.786-4.118 2.243-5.567a.787.787 0 011.5.474c-.486 1.54-1.681 4.406-2.319 5.761-3.367 7.216-8.834 13.42-16.102 16.974-7.254 3.547-14.185 3.746-19.292 3.063a34.734 34.734 0 01-6.124-1.385 26.52 26.52 0 01-1.707-.619 16.292 16.292 0 01-.577-.247l-.033-.015-.01-.004-.003-.002.337-.711-.338.71-.013-.006L11.03 73.201l-.014-.007c-.753-.431-1.27-1.17-1.474-1.988l-.008-.033-.474-3c-.32-1.46.676-2.92 2.037-3.338l.01-.003 7.223-2.12c.65-.222 1.095-.802 1.102-1.438-.36-8.661 3.249-15.233 6.92-19.617a35.104 35.104 0 015.095-4.956c.7-.554 1.288-.972 1.703-1.253a18.737 18.737 0 01.62-.403l.035-.022c7.641-4.942 16.65-6.41 23.697-6.658a66.946 66.946 0 018.77.27c1.09.106 1.96.22 2.56.309a33.748 33.748 0 01.873.14l.048.008.013.003h.004z" fill="red"/>
  <path fill-rule="evenodd" clip-rule="evenodd" d="M85.101 13.573c-1.819-.008-3.565.935-4.309 1.905l-.013.017-.014.017c-.454.53-1.087.649-1.616.57a2.456 2.456 0 01-1.336-.673c-1.557-1.446-3.108-1.761-4.404-1.587-1.334.18-2.445.886-3.038 1.542-.455.523-.796 1.192-1.006 1.957-.462 1.892.243 3.261 1.39 4.305 1.185 1.078 2.81 1.764 3.99 2.144l.035.012.033.014c.543.233.884.73.96 1.247a1.452 1.452 0 01-.674 1.469c-2.76 2.052-9.532 7.32-14.887 13.82-2.689 3.261-4.99 6.798-6.262 10.361-1.269 3.554-1.5 7.09-.12 10.42a12.107 12.107 0 007.607 6.868l.01.003.01.004c2.892.964 6.99 1.273 11.649-1.204 6.549-3.616 10.193-10.941 9.739-18.455v-.003l-1.493-21.833c-.132-.956.648-1.735 1.487-1.738 4.177-.038 5.897-1.45 6.625-2.826.773-1.462.583-3.162.399-4.009l-.018-.082v-.085a.515.515 0 00-.043-.168 4.562 4.562 0 01-.157-.457c-.522-1.369-1.238-2.242-2.006-2.778-.775-.541-1.652-.772-2.538-.777zm3.439-.513c1.074.75 1.975 1.912 2.592 3.55l.016.043.011.044c.017.07.036.118.066.197l.06.162c.052.148.117.353.13.602.208.995.451 3.094-.56 5.006-1.076 2.035-3.427 3.608-7.937 3.664l1.497 21.903c.489 8.061-3.418 15.996-10.554 19.933l-.005.003-.006.003c-5.089 2.709-9.64 2.392-12.881 1.314a13.68 13.68 0 01-8.59-7.76l-.002-.005c-1.57-3.79-1.269-7.746.09-11.555 1.357-3.8 3.78-7.496 6.53-10.833 5.489-6.66 12.396-12.026 15.176-14.092-1.257-.413-3.08-1.178-4.477-2.449-1.466-1.334-2.493-3.266-1.857-5.854l.002-.01.003-.01c.262-.96.705-1.858 1.347-2.592l.007-.008c.824-.916 2.27-1.82 4-2.053 1.77-.239 3.795.232 5.697 2.004l.01.01.01.009a.885.885 0 00.463.24c.12.018.164-.009.184-.03C80.636 13.117 82.85 11.99 85.11 12c1.16.006 2.358.31 3.43 1.06z" fill="red"/>
  <path fill-rule="evenodd" clip-rule="evenodd" d="M83.708 15.944l-.164-.77a.787.787 0 00.327 1.54l.005-.002a3.311 3.311 0 01.171-.027c.125-.017.306-.035.52-.04.44-.01.973.039 1.45.234.459.187.867.507 1.122 1.078.264.591.4 1.537.123 3.036a.787.787 0 001.547.286c.313-1.687.204-2.983-.233-3.963a3.574 3.574 0 00-1.964-1.894c-.752-.307-1.522-.362-2.079-.35a6.36 6.36 0 00-.96.096l-.019.004-.006.001h-.003v.001l.163.77zm-3.972 29.669c.43-.065.83.23.895.66l-.778.117.778-.117v.004l.002.007.003.023.011.084a19.955 19.955 0 01.118 1.425c.045.939.048 2.241-.12 3.7-.334 2.895-1.357 6.525-4.2 9.071a.787.787 0 01-1.05-1.172c2.428-2.174 3.372-5.35 3.687-8.08.156-1.354.154-2.568.112-3.444a18.412 18.412 0 00-.107-1.3l-.01-.066-.001-.015v-.002a.787.787 0 01.66-.895z" fill="red"/>
</svg>
