<svg width="100" height="100" viewBox="0 0 100 100" fill="red" xmlns="http://www.w3.org/2000/svg">
<path fill-rule="evenodd" clip-rule="evenodd" d="M18.076 51.804c.026-1.001.882-1.842 1.888-1.842h59.981c1.05 0 1.938.811 1.964 1.842.05.464.076.908.076 1.331 0 16.556-14.364 29.915-32.03 29.915C32.362 83.05 18 69.69 18 53.135c0-.423.026-.867.076-1.331zm1.888-.33c-.187 0-.378.19-.378.377v.042l-.004.041c-.048.43-.071.83-.071 1.201 0 15.626 13.588 28.404 30.444 28.404 16.932 0 30.519-12.779 30.519-28.404 0-.372-.023-.772-.07-1.2l-.005-.042v-.042c0-.156-.16-.378-.454-.378h-59.98zM37.112 87.13v1.36h25.685v-1.36H37.112zm-.102 1.357h.001zm-1.408-1.509c0-.775.698-1.36 1.435-1.36h25.911c.855 0 1.36.704 1.36 1.36v1.662c0 .34-.105.701-.382.978a1.36 1.36 0 01-.978.382H37.037c-.335 0-.688-.1-.97-.34a1.318 1.318 0 01-.465-1.02v-1.662z" fill="red"/>
<path fill-rule="evenodd" clip-rule="evenodd" d="M54.18 32.55a16.127 16.127 0 00-6.924-.649c-7.561 1-9.98 6.598-10.705 8.912-.136.467-.457.83-.816 1.06a1.928 1.928 0 01-1.298.3l-.013-.001-.012-.002c-2.753-.49-4.69-.163-6.062.523-1.37.685-2.257 1.77-2.835 2.947-.582 1.184-.84 2.444-.95 3.423-.038.344-.058.65-.068.9h52.96c-1.024-3.375-3.223-5.102-5.462-6.005-2.427-.978-4.912-.983-6.013-.948a1.18 1.18 0 01-.953-.253 1.433 1.433 0 01-.463-.736c-2.01-5.924-6.866-8.443-10.366-9.464l-.01-.003-.01-.003zM23.74 50.719l-.754.044v-.014l-.002-.03a10.098 10.098 0 01-.006-.493c.004-.326.024-.786.085-1.33.121-1.082.41-2.528 1.095-3.921.687-1.4 1.783-2.767 3.515-3.632 1.727-.864 4.005-1.19 6.984-.663a.438.438 0 00.262-.078.414.414 0 00.182-.214l.002-.009.003-.008c.79-2.526 3.51-8.852 11.954-9.967h.005a17.64 17.64 0 017.567.707c3.735 1.091 9.114 3.841 11.351 10.388 1.19-.035 3.89-.023 6.576 1.06 2.816 1.134 5.605 3.446 6.612 7.996l.203.92H23.03l-.043-.711.754-.045z" fill="red"/>
<path fill-rule="evenodd" clip-rule="evenodd" d="M64.103 11.51l-7.596 17.41 9.212-17.41h-1.616zm-1.302-.79c.153-.305.518-.72 1.13-.72h2.265c.976 0 1.554 1.108 1.024 1.905L55.994 33.118l-2.611-.816 9.41-21.565.008-.017zm17.673 14.917l-18.59 7.486 18.59-6.02v-1.466zm1.127-1.705a.871.871 0 01.384.723v2.871a.969.969 0 01-.297.685l-.128.129-21.749 7.043-2.855-1.904 23.761-9.568a.833.833 0 01.884.021zM48.792 36.581l.01-.001.053-.007a9.416 9.416 0 011.1-.056c.748.005 1.786.092 2.94.414 2.29.64 5.065 2.216 6.959 6.039a.755.755 0 101.354-.67c-2.11-4.261-5.265-6.085-7.905-6.823a12.835 12.835 0 00-3.337-.471 10.929 10.929 0 00-1.302.068l-.08.01-.023.004-.008.001-.003.001.12.746-.121-.746a.755.755 0 00.243 1.491zM76.405 55.72c.408.09.666.493.577.9l-.738-.161.738.161-.001.004-.002.008-.007.03a21.077 21.077 0 01-.127.516c-.091.35-.23.852-.424 1.467a37.313 37.313 0 01-1.855 4.747c-1.727 3.645-4.553 7.97-8.914 10.35a.755.755 0 11-.724-1.327c3.948-2.153 6.599-6.137 8.272-9.67a35.815 35.815 0 001.78-4.553 29.972 29.972 0 00.497-1.772l.022-.095.005-.022.002-.006a.756.756 0 01.9-.576z" fill="red"/>
</svg>