<svg width="175" height="96" viewBox="0 0 175 96" fill="white" xmlns="http://www.w3.org/2000/svg"><path opacity=".2" d="M157.351 29.297C154.596 11.913 135.446 5.35 120.829.874c-1.984-.608-3.708.999-4.048 2.79a62.133 62.133 0 00-8.436-1.097 2.57 2.57 0 00-1.96.728c-.064-.014-.126-.033-.191-.046a2.887 2.887 0 00-1.3.028 74.078 74.078 0 00-3.804-1.58c-1.828.654-3.794.763-5.609 1.507-.409.168-.758.123-1.027-.046a24.32 24.32 0 01-1.828.497c-.079.018-.154.022-.228.028-.522.349-.841.786-.976 1.258-2.157.439-4.335.802-6.495 1.236a28.99 28.99 0 00-2.152-.02 3.366 3.366 0 00-2.022.101 56.23 56.23 0 00-1.547.135c-.38-.855-1.238-1.42-2.383-.967l-4.727 1.868a2.29 2.29 0 00-.736.472c-1.19.506-2.382 1.008-3.576 1.506a68.65 68.65 0 00-1.64-.392c-1.47-.324-2.988.71-3.43 2.05-7.204.143-14.261 1.443-21.11 3.693a3.306 3.306 0 00-1.206.442c-1.115.672-1.26 1.954-.804 2.928a30.6 30.6 0 00-5.41-.479c-1.313 0-1.447 1.872-.242 2.222 7.438 2.163 13.331 6.295 17.872 11.63 5.776 8.034 9.639 17.674 11.55 27.11.714 3.528 6.811 2.686 6.297-.936-.038-.27-.084-.54-.126-.81l.006-.002-.016-.06c-.09-.578-.191-1.16-.297-1.743.838.433 1.798.589 2.76.275 1.303-.425 2.602-.86 3.9-1.295 1.32 1.34 3.971 1.015 4.898-.59a187.673 187.673 0 008.968-2.647c1.887 2.623 6.153 1.101 5.866-2.011a200.13 200.13 0 009.204-3.56c1.252.11 2.599-.46 3.333-1.424a211.655 211.655 0 007.362-3.389c.849-.345 1.7-.683 2.552-1.022.353.409.714.81 1.061 1.224 1.652 1.977 4.571.585 5.31-1.44.376.086.79.117 1.262.052.305-.041.604-.097.907-.142l.001.008.037-.014c8.131-1.208 15.801-3.608 23.141-7.368.598-.307 1.018-.693 1.315-1.117.074.178.153.352.224.534 1.486 3.8 6.65 2.257 6.022-1.702zM99.795 14.772c-.314-.198-.628-.396-.945-.591.554.117 1.102.25 1.651.388l-.706.203z" fill="#979391"/><path opacity=".2" d="M68.23 86.567c-1.077-.92-2.152-1.816-3.105-2.859a7.214 7.214 0 01-.74-.852 3.717 3.717 0 00-1.205-.084 6.956 6.956 0 00-.645-1.052c-.91-1.2-2.183-1.673-3.347-1.532.253-.322.455-.681.586-1.061-.086-.05-.175-.091-.258-.144a1.092 1.092 0 01-.386-.19c-.093-.071-.178-.145-.27-.216 0 .002-.002.004-.003.005l-2.404-1.953a1.068 1.068 0 01-.4-.702c-.072-.087-.14-.184-.211-.274-3.143-1.27-5.816-3.827-8.73-5.573-.118-.071-.202-.158-.288-.243-.967.481-1.891 1.042-2.736 1.575-1.732 1.094-4.36 2.74-5.951.676-2.211-1.625-2.256-5.463-2.225-8.214-.352-1.043-.789-2.055-1.456-2.995-.014-.02-.02-.038-.033-.057a15.482 15.482 0 00-.373-.159c-.217.25-.544.421-.98.435-2.469.079-5.257 2.191-7.223-.383-1.309-1.712-1.27-4.435-1.485-6.635-.671-.387-1.464-.55-2.322-.488-.979.84-1.932 1.71-2.9 2.557-.09.086-.176.175-.265.262a1.162 1.162 0 01-.326.535c-.309.291-.622.577-.935.863-.04.063-.065.128-.117.189a4.335 4.335 0 01-1.13.946c-.01.01-.024.019-.035.03.24.223.39.533.359.922-.163 2.074-.135 4.04.094 5.945.65 2.11 1.57 4.114 2.412 6.167.083.202.108.39.094.563.27.027.535.13.76.343 1.453 1.358 2.962 2.639 4.358 4.056.123.127.212.264.274.405 2.638 2.24 5.38 4.359 7.84 6.808.24.24.35.545.36.855.084.013.166.035.248.065.24-.013.5.05.77.22.576.366 1.153.727 1.731 1.085l.222.117c.102.054.19.115.267.182a120.14 120.14 0 004.355 2.562c4.666.767 8.72 3.69 13.474 3.424-.307-1.034-1.35-1.134-2.701-1.619-7.738-2.78-12.396-5.484-19.608-10.367-5.58-3.778-11.846-10.116-13.274-16.996.38-.145.767-.305 1.183-.504l.615-.293c.594 1.617 1.546 3.222 1.994 3.65 1.503 1.442 3.538 1.913 5.54 2.092.899.08 2.58.613 2.417.062.41.854.33 2.455.59 3.257 1.685 5.215 7.127 7.174 12.16 6 .75-.175 3.245-1.61 3.713-1.554.516.06 2.158 2.218 2.932 2.876 2.19 1.864 4.574 3.03 7.368 2.329a3.888 3.888 0 00-.63 1.888c.025-.342-.037.132-.057.222a10.634 10.634 0 00-.217 1.579.996.996 0 00-.006.207c-.056.327-.134.646-.184.975.001-.008-.098.856-.103.99a7.008 7.008 0 01-.12.605c-.197.773-.386 1.435-.43 2.246-.032.572.12 1.076.385 1.502.03-.002.062-.003.093-.007.113-.073.237-.14.387-.185 4.148-1.284 7.97-3.419 12.25-4.249a3.217 3.217 0 00-.018-.832zm54.571-29.294c-.711-1.019.271-1.99 1.254-1.96.152-.148.35-.266.606-.326.778-.185 1.511-.456 2.254-.751.364-.145.699-.092.975.073 5.641-3.044 12.362-3.573 18.549-5.41.971-.444 1.944-.879 2.918-1.315a10.635 10.635 0 01-.392-2.992c-.367-.16-.755-.279-1.162-.297-2.549-.112-4.665 1.115-7.124 1.696-2.817.667-5.693 1.055-8.553 1.485a52.274 52.274 0 00-3.203.592c-2.641 2.509-6.598 3.106-10.546 3.234-.672.256-1.348.52-2.033.793-3.436 1.367-2.334 6.413 1.161 5.982-.008-1.552 2.514-1.482 2.706.167.022.18.023.357.038.536.975 2.127 1.263 4.215.93 6.157 2.09-1.097 4.032-2.551 5.332-4.453-1.468-.79-2.771-1.864-3.71-3.21zm40.083-20.089c-.38.5-.845.92-1.44 1.331-.048.033-.106.064-.158.096a19.628 19.628 0 01-2.066 1.81c-.315.853-.173 1.851-.112 2.75a3.993 3.993 0 002.805 1.092c1.509-.017 3.112-.59 4.149-1.713.462-.5.842-1.189 1.025-1.914a12.216 12.216 0 01-4.203-3.452zM58.989 69.97c3.993 4.143 12.489 3.26 17.336 1.719a65.414 65.414 0 002.358-.81c1.566-.715 3.137-1.333 4.816-1.782a48.019 48.019 0 013.918-1.245c3.198-.845 5.97-1.84 8.143-3.657a3.269 3.269 0 00-.343-1.72c-1.04 1.073-2.056 1.718-3.661 1.57-2.983-.28-4.344-2.141-7.117-.017-.47.36-.914.719-1.343 1.043-.193.475-.627.848-1.233.83-1.213.672-2.397.78-3.85-.486-3.175.307-5.248 2.61-8.874 3.52-3.155.793-6.528-.11-9.3-1.655-.041.02-.087.036-.126.058.19.996-.128 1.895-.724 2.632zm97.437-43.223c-3.695 1.494-7.092 3.618-10.724 5.262-4.35 1.97-8.906 3.377-13.517 4.588-8.036 2.11-16.155 3.82-24.133 6.161a273.28 273.28 0 00-23.433 8.053c-7.587 2.999-15.551 6.072-22.469 10.451.95-6.196-1.1-12.945-3.728-18.398-1.893-3.924-4.336-7.557-6.98-11.01-2.385-3.115-4.819-7.033-8.555-8.532-.446-.178-.928.145-.811.649.658 2.835 2.553 4.747 4.342 6.95 2.65 3.262 5.155 6.65 7.258 10.294 4.421 7.662 5.288 14.799 5.545 23.431.013.413.313.735.675.891.168.132.366.225.595.26.554.081 1.18.12 1.684-.18.268-.159.465-.399.608-.669a1.46 1.46 0 00.163-.612h.004c-.004.055 0 .05.011-.004 8.242-2.994 16.108-7.042 24.32-10.156a272.896 272.896 0 0123.534-7.72c15.836-4.409 33.48-6.051 47.442-15.448 2.064-1.388.759-5.308-1.831-4.26z" fill="white"/><path d="M16.67 40.985c.668 0 .67-1.038 0-1.038-.667 0-.668 1.038 0 1.038zm.14-6.724c.558 0 .56-.868 0-.868-.56-.001-.561.868 0 .868zm5.255 2.879c1.06 0 1.061-1.648 0-1.648-1.06.001-1.062 1.648 0 1.648zm4.703 8.837c-.383 0-.384.597 0 .597s.385-.596 0-.596zm-5.738-1.565c.134-.105.17-.149.21-.309.022-.085-.028-.152-.104-.184-.16-.066-.225-.05-.396-.005-.44.115-.117.822.29.498zm9.75-7.324c.458 0 .46-.713 0-.713s-.46.713 0 .713zm-3.32-7.021c.5 0 .501-.778 0-.778-.5 0-.502.778 0 .778zm6.224 13.295c.701 0 .702-1.09 0-1.09-.7 0-.702 1.09 0 1.09zm-6.777-2.033c.575 0 .576-.894 0-.894-.576-.001-.577.894 0 .894zm8.299 8.634c.65 0 .652-1.012 0-1.012-.651 0-.652 1.012 0 1.012zm7.608-9.438c.608 0 .61-.947 0-.947s-.61.947 0 .947zm2.904 10.283c.493 0 .494-.765 0-.765-.492 0-.493.765 0 .765zm6.225 6.342c.642 0 .643-.999 0-.999s-.644.999 0 .999zm-10.928-3.429c.325 0 .326-.505 0-.505-.325-.001-.325.505 0 .505zm9.13-7.171c.71 0 .71-1.102 0-1.102s-.71 1.102 0 1.102zm-8.853.311c.575 0 .577-.894 0-.894-.576 0-.577.894 0 .894zM20.335 28.085l.066-.074a.193.193 0 000-.266l-.066-.073c-.172-.195-.498-.035-.498.207s.326.4.498.206zm15.285 4.839c.619 0 .62-.96 0-.96-.616 0-.618.96 0 .96zm2.469 5.61c.25-.073.42-.167.549-.4a.381.381 0 00-.058-.446c-.178-.199-.4-.044-.608-.02-.648.074-.49 1.04.117.866zm5.554-7.796c.476 0 .477-.739 0-.739-.475 0-.476.739 0 .739zm4.288 7.839c.418 0 .418-.648 0-.648-.417 0-.418.648 0 .648zM30.918 26.009c.442 0 .443-.688 0-.688-.442.001-.443.688 0 .688zm23.1 25.838c.584 0 .585-.907 0-.907-.584 0-.585.907 0 .907zm1.798 9.809c.567 0 .568-.882 0-.882-.567 0-.568.882 0 .882zm-9.544-4.876c.7 0 .701-1.09 0-1.09s-.702 1.09 0 1.09zm59.073-2.903c.387 1.619.512 3.296.96 4.898.049.178.334.193.374 0 .706-3.284-.653-7.111-2.407-9.862-.154-.241-.598-.09-.486.205.595 1.56 1.17 3.132 1.559 4.759z" fill="white"/><path d="M174.494 29.82c-2.155-3.998-8.058-4.258-12.554-3.026 1.276-2.775-2.047-6.254-5-5.707-4.475-8.04-15.542-12.972-23.508-15.853-13.799-4.992-31.653-7.198-45.164-.018a64.385 64.385 0 00-4.51-.43c-8.384-.5-18.063 1.179-25.021 6.14a40.213 40.213 0 00-3.52.211c-9.918 1.06-20.177 4.544-29.57 7.995-3.216.469-6.299 1.705-8.914 3.848-6.024 4.933-7.999 13.541-6.38 20.959-.332-.108-.54.425-.23.595.14.078.283.151.425.228-1.318.798-3.637.65-5.025.934-1.62.334-3.099.904-4.058 2.31a.448.448 0 00-.08.237C.638 50.1.797 51.7 2.79 52.424c1.486.541 3.214-.1 4.685.662 2.348 1.219 2.213 3.703 3.409 5.675 1.07 1.766 2.83 2.184 4.973 1.62.172-.044.36-.137.559-.262-1.895 13.3 12.795 23.036 23.045 28.579 3.758 2.033 10.455 6.037 14.988 4.472.025 0 .043.014.07.006 2.722-.818 5.32-2.04 7.945-3.123 1.851-.762 3.89-1.307 5.53-2.464 3.368 2.85 6.706 5.865 10.395 8.215.246.157.493.05.624-.141-.002.12.086.24.229.192 7.426-2.457 14.549-6.635 21.437-10.31 7.471-3.985 14.816-8.2 22.066-12.575a.655.655 0 00.293-.719 63.42 63.42 0 00-.316-1.245c11.028 1.182 22.338-.068 33.183-2.238 2.109-.421 13.936-2.88 10.454-7.224a.173.173 0 00-.018-.131c-.005-.01-.012-.019-.018-.028l.034-.02c.214-.134.152-.553-.14-.52-.075.01-.149.024-.224.032-.817-1.248-1.826-2.364-2.761-3.526-.745-.928-1.498-2.404-2.564-3.087 2.615-2.841 4.042-6.326 2.778-10.313.536-.228 1.063-.463 1.572-.672.837-.342 3.032-.808 3.331-1.762.268-.853-1.012-1.55-1.577-1.921-.638-.42-1.324-.77-1.932-1.234-.355-.271-.641-.627-.964-.927 0-.175-.038-.374-.106-.592 3.584.132 13.389-2.076 10.724-7.022zm-3.01-1.144c6.618 4.255-5.162 6.911-8.218 7.547-.325-.06-.681.183-.599.629.272 1.475-2.544 1.986-3.235 2.835-.646.793-.647 1.762-.56 2.742.057.64.335 1.221.449 1.842.379 2.064-.236 5.448-2.061 6.943-2.969 2.43-6.792-1.847-7.649-4.184-.408-1.114-.432-2.371-.858-3.517-.089-.24-.35-.458-.626-.356-2.584.957-4.446-.907-6.864.173-3.801 1.697-6.023 4.084-10.64 2.373-.093-.035-.158-.003-.208.047.164-.86.097-1.81-.253-2.85 2.555-.931 5.079-1.957 7.612-2.949a137.842 137.842 0 015.022-1.87c.093 1.224.571 2.824 1.799 3.148.209.056.363-.132.327-.327-.104-.568-.492-1.061-.75-1.57a6.678 6.678 0 01-.542-1.532c1.997-.67 4.018-1.264 6.079-1.723-.077.105-.048.277.095.308.159.035.769 1.849.868 2.058.325.693.662 1.37 1.096 2.003.677.99 1.529 1.966 2.769 2.154.239.036.414-.217.24-.412-1.033-1.157-2.035-2.146-2.813-3.513-.431-.756-.91-2.271-1.768-2.699.349-.074.698-.152 1.048-.217 2.881-.54 5.836-.74 7.436-3.453a.596.596 0 00.079-.221c3.694.958 8.748 1.585 11.599-1.313.129-.131.001-.394-.189-.326-2.151.77-4.19 1.33-6.502 1.27-1.66-.043-3.302-.32-4.956-.457.122-.762.195-1.509.213-2.235 4.144-.96 8.494-2.963 12.56-.348zm-58.892 30.64c1.386-2.558 2.029-5.626 1.825-8.5 4.669 2.178 14.627.443 15.934-4.809a.25.25 0 00.087.135c4.976 3.658 9.394-1.907 14.494-1.69.27.012 1.996.067 2.186.138 1.221.457 1.311 1.21 1.439 2.257a.479.479 0 00-.591-.106c-11.183 5.616-24.324 6.46-35.374 12.576zm8.147 5.772c-.241 2.744-.495 3.338-2.404 5.07-1.03.936-2.206 1.742-3.378 2.487-4.265 2.713-9.27 4.393-14.147 5.612-4.823 1.206-9.916 1.985-14.898 1.855-4.77-.123-13.024-1.366-15.81-5.745-.026-.039-.057-.061-.085-.09a429.41 429.41 0 014.609-1.747c8.782 4.693 20.011 3.55 29.286 1.047 6.886-1.858 16.401-7.091 15.053-15.65-.009-.058-.05-.091-.083-.13.382-.143.764-.284 1.145-.428.444 2.68.958 4.931.712 7.719zM80.275 87.734a.379.379 0 00-.414.085c-3.062-2.827-7.03-4.88-10.603-6.965-2.432-1.42-4.908-3.106-7.642-3.82 2.027-.306 4.034-1.06 6.019-1.837.496-.195.994-.384 1.49-.576a.581.581 0 00.048.289c2.047 4.513 9.457 5.663 13.766 6.184 4.35.526 8.963.124 13.412-.716-2.009.805-3.967 1.84-5.894 2.675-3.412 1.48-6.93 2.868-10.182 4.68zm-32.528-17.7c.12-.044.24-.089.367-.123 2.25-.612 4.981.825 7.307 1.113 3.062.38 5.345-.462 5.129-3.055 1.324 1.621 3.09 2.49 5.436 2.418 3.701-.115 6.097-2.524 9.373-3.652 2.668-.918 5.267 1.313 7.762-.368 2.204-1.483 2.893-3.204 6.097-2.503 1.197.261 1.755.942 3.118.795 1.633-.176 2.54-1.662 3.98-2.079 1.315-.38 2.256.076 3.135.7-9.503 2.633-18.91 5.708-28.077 9.338-5.294 2.096-10.632 5.127-16.226 2.048-2.579-1.418-4.65-3.643-7.4-4.631zm31.29-10.829c.159.873.292 1.758.577 2.584a.21.21 0 00.4 0c.325-.956.158-2.012-.22-2.954a392.176 392.176 0 014.097-1.99 258.692 258.692 0 016.596-3.04c.087.253.168.509.23.771.095.407.134.926.47 1.21.13.11.3.091.396-.051.385-.561.012-1.528-.392-2.237 6.475-2.823 13.114-5.22 20.122-6.414.381-.066.763-.125 1.144-.186a.64.64 0 00-.041.374c.622 3.392.867 6.565-.378 9.876-1.573 4.182-6.142 8.768-10.747 5.918-1.478-.916-2.527-2.255-4.458-1.9-.735.134-1.231.661-1.876.976-2.703 1.32-4.46.635-6.928-.13-1.295-.402-1.897-.331-2.995.362-2.737 1.726-.76 3.463-5.99 3.06-.524-.041-.887-.573-1.469-.554-2.213.074-3.766 1.414-5.712 2.389-4.073 2.041-7.98 2.776-11.298-.571 6.401-1.613 12.5-4.563 18.473-7.493zm45.401-14.456a63.028 63.028 0 003.61-1.105c-1.844 1.862-3.264 3.199-5.98 3.739-2.88.573-5.589.404-8.262-.693 3.566-.537 7.138-.994 10.632-1.941zm4.873-1.541c.129 7.709-9.214 7.741-14.959 6.882a12.39 12.39 0 00-.595-2.557c4.321 2.573 14.191 1.55 14.916-3.92.008-.07-.023-.12-.066-.162.234-.08.47-.16.704-.243zm-28.975 20.74c.431.328.872.644 1.361.863 2.305 1.036 5.138.092 7.141-1.244 1.3-.866 2.388-2.051 3.258-3.419 2.061-.635 4.093-1.355 6.116-2.103-1.939 9.561-9.176 13.181-18.184 15.035-8.357 1.72-16.177 1.621-24.193-1.002 8.054-2.973 16.181-5.694 24.444-8.1.022-.008.037-.022.057-.03zm31.525-10.734c5.578-1.615 11.597-2.526 16.602-5.623a.499.499 0 00.172-.177c.024.156.048.314.085.481.42 1.973 1.255 3.58 3.105 4.485-4.156 1.334-7.935 2.855-12.38 3.187-4.019.3-7.841-.283-11.741-1.019a87.42 87.42 0 014.157-1.334zm28.495-29.72c.763 1.095.73 2.315.692 3.566a13.96 13.96 0 00-2.129.899c-.097-2.246-.688-4.308-1.638-6.206 1.185.228 2.368.727 3.075 1.74zm-95.1-10.5c4.209.882 7.417 3.038 11.04 5.165.344.202.853-.228.585-.586-3.548-4.728-10.037-6.422-16.087-6.635 6.55-2.649 12.68-4.67 20.01-4.677 8.263-.01 16.914 2.066 23.274 7.515.446.383 1.114-.092.824-.636-2.417-4.544-8.865-6.656-14.709-7.636 5.942-1.65 11.675-3.055 17.987-3.126 6.863-.076 13.683 1.017 20.252 2.974 6.416 1.913 12.95 4.51 18.638 8.083 6.792 4.269 9.974 10.442 10.39 18.35-.805.742-1.763 1.29-2.813 1.71.325-1.073.229-2.247-.56-3.136-.188-.21-.48.018-.436.253.205 1.086.377 2.131.13 3.197-1.355.444-2.816.732-4.268.993.242-.8.229-1.64-.301-2.372-.124-.17-.378-.11-.394.107-.058.806-.068 1.674-.331 2.45-1.173.21-2.314.432-3.363.732.185-.532.159-1.116-.256-1.557-.147-.156-.433-.082-.482.127-.155.645-.188 1.273-.543 1.843a96.898 96.898 0 00-4.349 1.545c.102-.686.019-1.433-.449-1.945-.137-.15-.431-.082-.471.125-.13.678.028 1.42.141 2.114-1.564.604-3.123 1.222-4.682 1.836.41-1.046.627-2.47-.156-3.393-.118-.138-.409-.076-.436.115-.144 1.05.109 2.083-.121 3.144-.036.168.024.292.122.366-.405.158-.809.32-1.215.476-1.113.428-2.228.81-3.345 1.158-.009-.863-.23-1.745-.877-2.328-.189-.17-.457-.002-.412.24.151.803.403 1.533.479 2.33a81.786 81.786 0 01-5.973 1.514c.005-.02.016-.036.019-.058.133-1.196-.158-3.134-1.467-3.614-.182-.066-.332.131-.295.295.122.54.483 1.008.674 1.528.215.586.312 1.166.285 1.79a.373.373 0 00.056.215c-1.835.387-3.676.736-5.522 1.084.375-1.01.424-2.159-.273-3.039-.121-.154-.374-.02-.373.155.008 1.061.126 2.06-.288 3.06-2.171.408-4.35.826-6.537 1.313.146-.847.043-1.733-.662-2.307-.172-.14-.456-.06-.457.19-.002.779.233 1.535.278 2.31-.392.09-.782.18-1.174.276a69.467 69.467 0 00-3.811 1.065c.149-.758.06-1.53-.447-2.192-.131-.17-.411-.126-.42.114-.029.787.022 1.582-.055 2.367-1.442.46-2.872.955-4.29 1.49.04-.816-.118-1.689-.704-2.205a.228.228 0 00-.385.159c-.024.459.127.902.2 1.351.055.33.092.662.12.994a123.338 123.338 0 00-4.74 1.947c0-1.173-.364-2.386-1.367-3.065-.126-.085-.25.076-.193.192.498 1.006.971 1.94.942 3.09 0 .021.007.036.01.054a211.627 211.627 0 00-5.364 2.46c.046-.624-.015-1.263-.376-1.755-.108-.147-.416-.175-.45.06-.1.68.027 1.374.047 2.066l-1.155.55c-1.327.638-2.658 1.256-3.988 1.879.142-.995.185-2.13-.348-2.954-.093-.144-.346-.137-.386.05-.22 1.019.021 2.177.033 3.233a511.445 511.445 0 01-4.425 2.038c.132-.949-.01-1.955-.664-2.68-.12-.133-.392-.035-.373.155.099.982.305 1.898.256 2.88-2.19.994-4.386 1.977-6.587 2.948.194-1.09.24-2.292-.304-3.207-.117-.197-.39-.098-.407.11-.053.63.1 1.259.142 1.886.035.493.03.978.001 1.463-2.217.976-4.44 1.948-6.67 2.914 1.616-9.008-1.19-18.53-5.029-26.629-3.591-7.576-8.967-14.873-16.8-18.419a23.75 23.75 0 00-9.235-2.111c7.147-1.892 14.165-4.332 21.434-5.689 4.834-.902 9.833-1.26 14.681-.243zM18.64 23.225c7.29-4.886 17.013-2.919 23.672 2.061 11.982 8.962 17.33 26.002 16.711 40.474-16.611-5.291-31.77-14.958-47.92-21.52-.304-7.875.278-16.149 7.538-21.015zm-7.25 33.852c-.937-1.307-.967-3.26-2.249-4.345-1.715-1.452-8.086-.754-6.8-4.218 1.15-1.77 3.538-2.007 5.445-2.32 1.116-.183 2.474-.308 3.343-1.123a199.591 199.591 0 006.105 3.173c-.71.245-1.376.67-2.032 1.01-.943.488-1.916.933-2.78 1.556a.215.215 0 00.164.39c1.087-.196 2.093-.669 3.07-1.169.781-.4 1.615-.82 2.207-1.477 4.244 2.1 8.55 4.097 12.844 6.096-.913.848-1.836 1.862-2.082 3.043-.047.227.198.351.369.215.577-.46.978-1.086 1.427-1.664.331-.427.67-.843 1.021-1.25 1.86.865 3.717 1.734 5.564 2.616 2.252 1.076 4.6 2.367 7.01 3.65-1.573 2.025-3.1 4.548-3.205 7.161-.01.26.343.33.471.127 1.366-2.157 2.228-4.655 3.49-6.89 4.609 2.434 9.43 4.74 14.242 5.413a.49.49 0 00.283.267c.975 5.122-7.34 1.307-9.91 1.254-.956-.019-1.965.438-2.986 1.072l-.013-.004c-.212-.038-.395.12-.442.296-3.503 2.32-7.098 6.175-9.302-.445-.831-2.499.316-8.233-3.4-8.887-1.217-.215-2.002.815-3.08 1.035-6.247 1.271-3.92-3.362-4.966-6.641-.001-.002-.003-.003-.003-.005a.63.63 0 00-.113-.219c-4.495-5.758-8.014 10.2-13.692 2.283zm36.755 33.849c-4.613-1.586-8.964-3.877-13.05-6.529-8.952-5.81-18.788-12.897-18.038-24.692 0-.019-.006-.034-.008-.05 2.252-1.877 5.561-6.426 7.239-4.268.618 2.25-.797 5.954 1.272 7.613 1.752 1.405 3.418-.006 5.125-.451 5.833-1.521 3.717 4.327 5.06 7.842.868 2.276 3.287 3.847 5.748 3.556 2.234-.263 3.472-2.196 5.165-3.34 2.123 1.144 4.043 2.638 6.052 3.957-.072.11-.083.256.03.367 2.044 1.968 4.231 3.803 6.458 5.595.251 6.696-3.037 13.154-11.053 10.4zm13.894-1.883c-1.468.63-2.951 1.252-4.404 1.932 2.227-2.465 3.307-6.216 2.872-9.405a762.35 762.35 0 002.3 1.818c-.01.024-.027.044-.027.073-.005.767.02 1.513-.18 2.263-.163.613-.608 1.189-.615 1.822-.002.199.201.275.36.207.702-.299.982-1.375 1.088-2.06.1-.648.088-1.285-.106-1.895.557.44 1.112.881 1.664 1.324a.186.186 0 00-.069.103c-.089.421-.203.812-.192 1.246.012.536.82.537.833 0 .008-.348-.065-.671-.14-1.002.213.172.43.342.641.515.403.327.804.66 1.204.996-1.81.382-3.541 1.34-5.23 2.063zm3.622-5.095c-3.176-2.533-6.36-5.192-9.698-7.56a9.429 9.429 0 003.12.76c.03.108.104.202.236.234 7.432 1.77 13.266 8.034 20.059 11.242a.261.261 0 00.232.114l.019.008c-.165 1.085-.216 2.19-.359 3.276-.134 1.02-.382 2.016-.287 3.028l-.004-.007c-3.915-4.15-8.86-7.542-13.318-11.095zm54.993-11.2c-1.193 1.416-4.22 2.509-5.832 3.445a497.034 497.034 0 01-11.806 6.643c-7.618 4.156-15.84 7.633-23.203 12.227.422-.916.493-1.95.599-2.964.126-1.208.234-2.425.112-3.632 3.365-1.066 6.604-2.578 9.843-3.97 3.406-1.465 7.354-2.597 10.264-4.917a.164.164 0 00.066-.157c.674-.17 1.346-.345 2.003-.528 5.799-1.615 11.847-3.914 16.405-7.97.858-.764 1.508-1.556 1.989-2.374.206 1.484.661 2.89-.44 4.197zm1.846-2.543a22.955 22.955 0 00-.796-2.304.368.368 0 00-.182-.188c.25-.563.426-1.138.544-1.725 7.085 2.4 14.856 1.375 22.121.416 6.654-.878 15.235-1.191 21.295-4.533 1.525 8.012-36.561 8.379-42.982 8.334zm39.807-12.3c.923 1.067 1.844 2.16 2.911 3.085-2.868.467-5.655 1.466-8.516 2.033-3.706.735-7.462 1.232-11.203 1.746-7.928 1.092-15.382 1.515-23.32.516.301-2.555-.44-5.31-1.355-8.218l.916-.345c4.169 8.424 18.374 7.207 25.696 5.15 3.871-1.088 9.044-3.484 12.555-6.909.439 1.113 1.596 2.108 2.316 2.941zm-4.735-2.488c-3.32 2.957-7.754 4.632-12.019 5.636-8.095 1.907-17.17 1.636-23.184-4.567 1.353-.51 2.709-1.016 4.071-1.502 7.798 3.205 18.928 2.74 26.017-1.95a.413.413 0 00.182-.324c3.309 1.018 7.596-.977 8.336-4.505.252-1.2-.149-2.203-.337-3.34.639-.108 1.278-.309 1.906-.547-.51 4.435-1.453 7.966-4.972 11.099zm8.796-14.698c.253.225.55.355.892.39a81.618 81.618 0 01-3.598 1.605c-1.026.427-2.159.757-3.151 1.286-.237-1.462-.609-2.86.749-4.157.364-.347 1.015-.414 1.418-.735.233-.186.439-.354.614-.52.742.96 2.252 1.695 3.076 2.13z" fill="white"/><path d="M22.896 63.778c.45 0 .451-.7 0-.7s-.452.7 0 .7zm0 6.026c-.517 0-.518.804 0 .804.517-.001.517-.804 0-.804zm-2.906-4.828c-.5 0-.501.777 0 .777.5 0 .502-.777 0-.777zm8.3 2.286c-.584 0-.585.907 0 .907.584.001.585-.907 0-.907zm-7.47-8.611c-.45 0-.451.7 0 .7.451.001.451-.7 0-.7zm8.438 15.981c-.534 0-.535.83 0 .83.534 0 .535-.83 0-.83zm2.352-8.448c-.192 0-.192.298 0 .298.191 0 .192-.298 0-.298zm2.49 9.172c-.492 0-.493.765 0 .765.492 0 .492-.765 0-.765zm2.22 7.15c-.34-.024-.54.39-.38.664.17.291.588.279.762 0a.653.653 0 00.12-.3c.014-.103-.01-.211-.107-.264a.861.861 0 00-.394-.1zm5.803-6.379c-.568 0-.569.882 0 .882.567 0 .568-.882 0-.882zm7.203 1.318c.06.019.118.045.178.068a.344.344 0 00.343-.092.525.525 0 00-.055-.778c-.63-.51-1.189.583-.466.802zm-.841 4.842c-.652 0-.653 1.012 0 1.012.65 0 .652-1.012 0-1.012zm-6.013-1.147c-.45-.06-.452.6 0 .539.158-.021.208-.044.318-.154a.164.164 0 000-.229c-.11-.111-.16-.134-.318-.155zm5.807 5.71l.011-.008c-.283-.174-.654.05-.654.374 0 .347.364.518.654.375a.56.56 0 00.266-.259c.128-.227-.04-.459-.277-.483zm6.617-.365a5.461 5.461 0 01-.071-.072c-.05-.064-.18-.064-.23 0-.103.134-.255.194-.255.392 0 .185.14.337.321.363.378.054.587-.494.235-.683zm-.739-6.05c-.543 0-.544.843 0 .843.541 0 .542-.843 0-.843zm-23.101-1.364c-.518 0-.518.805 0 .805s.518-.805 0-.805z" fill="white"/></svg>